<svg width="691" height="582" viewBox="0 0 691 582" fill="none" xmlns="http://www.w3.org/2000/svg">
<rect width="690" height="582" rx="8" fill="#CBCBCB"/>
<rect x="45" y="579" width="45" height="45" transform="rotate(-90 45 579)" fill="#D9D9D9"/>
<rect x="45" y="534" width="45" height="45" transform="rotate(-90 45 534)" fill="#D9D9D9" fill-opacity="0.5"/>
<rect x="90" y="534" width="45" height="45" transform="rotate(-90 90 534)" fill="#D9D9D9" fill-opacity="0.9"/>
<rect x="45" y="489" width="45" height="45" transform="rotate(-90 45 489)" fill="#D9D9D9" fill-opacity="0.9"/>
<rect x="45" y="444" width="45" height="45" transform="rotate(-90 45 444)" fill="#D9D9D9" fill-opacity="0.5"/>
<rect y="444" width="45" height="45" transform="rotate(-90 0 444)" fill="#D9D9D9" fill-opacity="0.9"/>
<rect x="132.465" y="579" width="45" height="45" transform="rotate(-90 132.465 579)" fill="#D9D9D9" fill-opacity="0.9"/>
<rect x="645.465" width="45" height="45" transform="rotate(90 645.465 0)" fill="#D9D9D9"/>
<rect x="645.465" y="45" width="45" height="45" transform="rotate(90 645.465 45)" fill="#D9D9D9" fill-opacity="0.5"/>
<rect x="600.465" y="45" width="45" height="45" transform="rotate(90 600.465 45)" fill="#D9D9D9" fill-opacity="0.9"/>
<rect x="645.465" y="90" width="45" height="45" transform="rotate(90 645.465 90)" fill="#D9D9D9" fill-opacity="0.9"/>
<rect x="645.465" y="135" width="45" height="45" transform="rotate(90 645.465 135)" fill="#D9D9D9" fill-opacity="0.5"/>
<rect x="690.465" y="135" width="45" height="45" transform="rotate(90 690.465 135)" fill="#D9D9D9" fill-opacity="0.9"/>
<rect x="558" width="45" height="45" transform="rotate(90 558 0)" fill="#D9D9D9" fill-opacity="0.9"/>
</svg>
