<svg width="146" height="32" viewBox="0 0 146 32" fill="none" xmlns="http://www.w3.org/2000/svg">
<path d="M33.305 26.206L36.0329 6.70888C37.5526 6.55758 39.6713 6.48193 42.3889 6.48193C44.7711 6.48193 46.4209 6.86018 47.3382 7.61325C48.2554 8.36631 48.5772 9.72457 48.2931 11.6812C48.0877 13.0944 47.6838 14.1501 47.0849 14.8447C46.4859 15.5428 45.5926 15.9485 44.4117 16.0585L44.3843 16.1995C46.9719 16.4059 48.0227 18.1596 47.5333 21.4572C47.2321 23.4172 46.5954 24.7342 45.6199 25.4117C44.6445 26.0891 43.0324 26.4295 40.7836 26.4295C37.5047 26.4329 35.0129 26.3573 33.305 26.206ZM36.3718 24.0053L40.3661 24.0328C41.9029 24.0328 42.981 23.8127 43.6005 23.3691C44.2201 22.9255 44.6239 22.0555 44.8088 20.7557C44.997 19.3631 44.8498 18.4243 44.3741 17.9429C43.8949 17.4615 42.8989 17.2139 41.3792 17.1933H37.3301L36.3718 24.0053ZM37.6382 15.0166H41.5195C42.8681 15.0166 43.8401 14.7897 44.4323 14.3392C45.0244 13.8888 45.4112 13.0394 45.5994 11.7946C45.7671 10.6083 45.6165 9.82773 45.1476 9.44948C44.6787 9.07467 43.7135 8.88554 42.252 8.88554H38.4836L37.6382 15.0166Z" fill="white"/>
<path d="M60.5328 12.417H63.3736C62.3605 16.901 61.0393 20.6973 59.4067 23.8058C57.9452 26.5945 56.494 28.5718 55.0598 29.7409C53.6257 30.91 51.9144 31.6631 49.9258 32.0001L49.4192 30.0504C50.6206 29.7684 51.6679 29.3454 52.5681 28.7781C53.4683 28.2141 54.3308 27.3545 55.1557 26.206H53.8893C53.458 26.206 53.0918 26.0891 52.794 25.8518C52.4928 25.618 52.3045 25.2913 52.2327 24.8752L49.5903 12.4136H52.462L54.543 23.5754C54.5978 23.8952 54.786 24.0568 55.1043 24.0568H56.4837C56.559 23.9261 56.6617 23.7301 56.7917 23.4791C56.9218 23.2247 57.0074 23.0596 57.045 22.984C58.6948 19.5384 59.8585 16.0173 60.5328 12.417Z" fill="white"/>
<path d="M68.9697 14.5351L67.8711 22.2789C67.7786 22.9391 67.8368 23.3861 68.0525 23.62C68.2681 23.8572 68.7028 23.9741 69.3599 23.9741H71.4136L71.5265 26.0923C70.7016 26.3365 69.6338 26.4603 68.3194 26.4603C67.1009 26.4603 66.2247 26.1199 65.6908 25.4424C65.1568 24.765 64.972 23.7953 65.1431 22.5334L66.2692 14.5351H63.7672L64.0205 12.5579L66.5807 12.4169L67.1728 8.37646H69.846L69.2846 12.4169H73.5049L73.2242 14.5351H68.9697Z" fill="white"/>
<path d="M84.8067 23.919L84.9745 25.7552C83.643 26.2813 81.7571 26.5461 79.3201 26.5461C76.9756 26.5461 75.3532 25.9306 74.453 24.6961C73.5528 23.4617 73.2722 21.5463 73.6076 18.9467C73.9636 16.2921 74.6892 14.4765 75.7879 13.5068C76.8831 12.5371 78.6903 12.0522 81.2026 12.0522C83.3418 12.0522 84.7931 12.4305 85.5632 13.1836C86.3333 13.9366 86.6139 15.0473 86.4086 16.519C86.1827 17.8567 85.659 18.8229 84.8341 19.4144C84.0092 20.0093 82.7428 20.3703 81.0383 20.501L76.2842 20.9239C76.2636 22.2237 76.5374 23.104 77.0988 23.5648C77.6601 24.0256 78.5432 24.256 79.7411 24.256C81.0178 24.256 82.7052 24.1459 84.8067 23.919ZM76.4519 18.8883L81.0383 18.4653C81.9009 18.4103 82.5306 18.2246 82.9243 17.9151C83.3179 17.6057 83.5711 17.0623 83.6841 16.2887C83.797 15.4049 83.6499 14.8582 83.2494 14.6484C82.8455 14.4421 82.0275 14.3389 80.7885 14.3389C79.3646 14.3389 78.3549 14.6347 77.7662 15.2296C77.1707 15.821 76.7325 17.0417 76.4519 18.8883Z" fill="white"/>
<path d="M92.7097 6.42676L91.9499 12.1349C91.7822 13.3797 91.5357 14.4319 91.2174 15.2985C92.1176 14.3941 93.1068 13.6307 94.1849 13.0083C95.2631 12.3859 96.2625 12.0764 97.1798 12.0764C98.2682 12.0764 99.1034 12.2793 99.6818 12.6851C100.264 13.0908 100.674 13.8439 100.921 14.9443C101.164 16.0446 101.126 17.5576 100.808 19.4798C100.603 21.0238 100.312 22.2823 99.9351 23.252C99.5586 24.2217 99.0726 24.9438 98.4736 25.4149C97.8746 25.886 97.2654 26.1955 96.6459 26.3468C96.0263 26.4981 95.2288 26.5738 94.2568 26.5738C91.9704 26.5738 89.6635 26.2333 87.3361 25.5559L90.0092 6.42676H92.7097ZM91.1627 17.4476L90.2351 24.2286C91.5836 24.2836 92.5865 24.3146 93.2437 24.3146C95.0235 24.3146 96.1975 24.0292 96.7588 23.4515C97.3201 22.8772 97.7514 21.488 98.0526 19.2838C98.3162 17.231 98.3435 15.9105 98.1382 15.326C97.9328 14.7414 97.3989 14.4491 96.5363 14.4491C95.2049 14.4525 93.4148 15.4498 91.1627 17.4476Z" fill="white"/>
<path d="M114.369 26.2057H112.23L112.342 23.6611C110.693 25.5833 108.725 26.5427 106.435 26.5427C104.765 26.5427 103.642 25.996 103.06 24.9025C102.478 23.809 102.376 21.8868 102.752 19.1393C102.957 17.6126 103.248 16.3643 103.625 15.3946C104.001 14.4249 104.498 13.7028 105.117 13.2317C105.737 12.7606 106.373 12.4443 107.03 12.2861C107.688 12.1279 108.53 12.0454 109.563 12.0454C111.795 12.0454 114.037 12.2896 116.285 12.7813L114.369 26.2057ZM112.315 21.2335L113.301 14.394C111.576 14.3562 110.611 14.339 110.405 14.339C109.43 14.339 108.69 14.3871 108.184 14.48C107.677 14.5728 107.232 14.8135 106.849 15.2021C106.466 15.5872 106.182 16.0824 106.004 16.6841C105.826 17.2859 105.651 18.1731 105.483 19.3388C105.22 21.3916 105.189 22.7121 105.384 23.2932C105.583 23.8778 106.12 24.1701 107.003 24.1701C107.866 24.1701 108.708 23.9294 109.536 23.4479C110.354 22.9734 111.285 22.2341 112.315 21.2335Z" fill="white"/>
<path d="M121.457 12.4168L121.317 15.3843C123.792 13.1629 125.958 12.0488 127.813 12.0488C128.977 12.0488 129.857 12.3824 130.456 13.0529C131.055 13.7234 131.26 14.6794 131.075 15.9207L129.614 26.2057H126.913L128.234 16.5982C128.347 15.7316 128.313 15.1436 128.135 14.8307C127.957 14.5212 127.567 14.363 126.968 14.363C126.198 14.363 125.397 14.6003 124.562 15.068C123.727 15.5391 122.635 16.3127 121.286 17.3856L120.078 26.2023H117.35L119.291 12.4133H121.457V12.4168Z" fill="white"/>
<path d="M143.058 12.4169H145.844C145.057 14.8858 143.537 16.9284 141.288 18.548C141.569 18.9812 141.85 19.528 142.134 20.1882L144.807 26.2058H141.881L139.238 19.8478C138.393 20.3017 137.308 20.8278 135.976 21.4296L135.275 26.2058H132.574L135.33 6.42676H138.057L136.818 15.6939C136.651 16.8252 136.349 17.9531 135.918 19.0844C137.698 18.2351 139.242 17.2447 140.546 16.1031C141.843 14.9649 142.682 13.7373 143.058 12.4169Z" fill="white"/>
<path d="M13.6311 20.0303H0.155884V26.801H13.6311V20.0303Z" fill="white"/>
<path d="M20.3225 6.53711H6.84729V20.075H20.3225V6.53711Z" fill="white"/>
<path d="M6.8028 0H0.248291V6.49216H6.8028V0Z" fill="white"/>
<path d="M26.7368 0H20.2747V6.49216H26.7368V0Z" fill="white"/>
</svg>
