<svg width="690" height="478" viewBox="0 0 690 478" fill="none" xmlns="http://www.w3.org/2000/svg">
<g clip-path="url(#clip0_9001_1672)">
<rect width="690" height="478" fill="white"/>
<rect width="690" height="478" rx="8" fill="#CBCBCB"/>
<rect x="48" y="478" width="45" height="45" transform="rotate(-90 48 478)" fill="#D9D9D9"/>
<rect x="48" y="433" width="45" height="45" transform="rotate(-90 48 433)" fill="#D9D9D9" fill-opacity="0.5"/>
<rect x="93" y="433" width="45" height="45" transform="rotate(-90 93 433)" fill="#DEE9EA" fill-opacity="0.9"/>
<rect x="48" y="388" width="45" height="45" transform="rotate(-90 48 388)" fill="#DEE9EA" fill-opacity="0.9"/>
<rect x="48" y="343" width="45" height="45" transform="rotate(-90 48 343)" fill="#D9D9D9" fill-opacity="0.5"/>
<rect x="3" y="343" width="45" height="45" transform="rotate(-90 3 343)" fill="#DEE9EA" fill-opacity="0.9"/>
<rect x="135.465" y="478" width="45" height="45" transform="rotate(-90 135.465 478)" fill="#DEE9EA" fill-opacity="0.9"/>
<rect x="645.465" width="45" height="45" transform="rotate(90 645.465 0)" fill="#D9D9D9"/>
<rect x="645.465" y="45" width="45" height="45" transform="rotate(90 645.465 45)" fill="#D9D9D9" fill-opacity="0.5"/>
<rect x="600.465" y="45" width="45" height="45" transform="rotate(90 600.465 45)" fill="#DEE9EA" fill-opacity="0.9"/>
<rect x="645.465" y="90.0002" width="45" height="45" transform="rotate(90 645.465 90.0002)" fill="#DEE9EA" fill-opacity="0.9"/>
<rect x="645.465" y="135" width="45" height="45" transform="rotate(90 645.465 135)" fill="#D9D9D9" fill-opacity="0.5"/>
<rect x="690.465" y="135" width="45" height="45" transform="rotate(90 690.465 135)" fill="#DEE9EA" fill-opacity="0.9"/>
<rect x="558" width="45" height="45" transform="rotate(90 558 0)" fill="#DEE9EA" fill-opacity="0.9"/>
</g>
<defs>
<clipPath id="clip0_9001_1672">
<rect width="690" height="478" fill="white"/>
</clipPath>
</defs>
</svg>
