<svg width="284" height="311" viewBox="0 0 284 311" fill="none" xmlns="http://www.w3.org/2000/svg">
<circle cx="112.5" cy="63.7848" r="53.6999" stroke="#F1823D" stroke-width="18.9529"/>
<mask id="path-2-inside-1_578_5240" fill="white">
<path d="M112.5 10.1288C112.5 4.87081 116.786 0.534963 121.985 1.32435C131.643 2.79098 140.875 6.48504 148.927 12.1675C159.585 19.6887 167.653 30.3246 172.024 42.6148C176.395 54.9051 176.855 68.247 173.339 80.8089C169.824 93.3708 162.507 104.537 152.392 112.773C142.277 121.01 129.86 125.914 116.847 126.811C103.834 127.709 90.8613 124.556 79.7113 117.786C68.5613 111.016 59.7803 100.96 54.5739 89.0001C50.6405 79.9639 48.8931 70.1751 49.4133 60.4201C49.6933 55.1696 54.8076 51.8505 59.9565 52.9156C65.1055 53.9807 68.3058 59.0448 68.3675 64.3024C68.4362 70.1576 69.6699 75.9733 72.0323 81.4005C75.6695 89.7561 81.804 96.781 89.5935 101.511C97.383 106.24 106.446 108.443 115.537 107.816C124.628 107.189 133.303 103.763 140.369 98.0087C147.435 92.2544 152.547 84.4538 155.003 75.678C157.459 66.9022 157.138 57.5813 154.084 48.9952C151.03 40.4092 145.394 32.9788 137.948 27.7244C133.112 24.3116 127.667 21.9254 121.947 20.672C116.811 19.5465 112.5 15.3867 112.5 10.1288Z"/>
</mask>
<path d="M112.5 10.1288C112.5 4.87081 116.786 0.534963 121.985 1.32435C131.643 2.79098 140.875 6.48504 148.927 12.1675C159.585 19.6887 167.653 30.3246 172.024 42.6148C176.395 54.9051 176.855 68.247 173.339 80.8089C169.824 93.3708 162.507 104.537 152.392 112.773C142.277 121.01 129.86 125.914 116.847 126.811C103.834 127.709 90.8613 124.556 79.7113 117.786C68.5613 111.016 59.7803 100.96 54.5739 89.0001C50.6405 79.9639 48.8931 70.1751 49.4133 60.4201C49.6933 55.1696 54.8076 51.8505 59.9565 52.9156C65.1055 53.9807 68.3058 59.0448 68.3675 64.3024C68.4362 70.1576 69.6699 75.9733 72.0323 81.4005C75.6695 89.7561 81.804 96.781 89.5935 101.511C97.383 106.24 106.446 108.443 115.537 107.816C124.628 107.189 133.303 103.763 140.369 98.0087C147.435 92.2544 152.547 84.4538 155.003 75.678C157.459 66.9022 157.138 57.5813 154.084 48.9952C151.03 40.4092 145.394 32.9788 137.948 27.7244C133.112 24.3116 127.667 21.9254 121.947 20.672C116.811 19.5465 112.5 15.3867 112.5 10.1288Z" stroke="#FF3C82" stroke-width="37.9058" mask="url(#path-2-inside-1_578_5240)"/>
<mask id="path-3-inside-2_578_5240" fill="white">
<path d="M112.5 10.1288C112.5 4.87081 116.786 0.535015 121.985 1.32439C128.566 2.32375 134.968 4.36007 140.947 7.37538C149.77 11.8246 157.426 18.2813 163.3 26.2267C169.174 34.172 173.103 43.3845 174.77 53.1238C176.438 62.8632 175.798 72.8579 172.901 82.3048C170.004 91.7518 164.932 100.388 158.092 107.518C151.252 114.649 142.835 120.076 133.516 123.363C124.198 126.65 114.238 127.706 104.438 126.445C97.7964 125.59 91.3532 123.688 85.343 120.826C80.5956 118.566 79.4765 112.573 82.4238 108.219C85.3711 103.865 91.2727 102.836 96.1568 104.783C99.585 106.15 103.183 107.085 106.868 107.56C113.715 108.44 120.672 107.703 127.182 105.407C133.692 103.11 139.572 99.3191 144.351 94.3375C149.13 89.3558 152.673 83.3228 154.697 76.7231C156.72 70.1233 157.168 63.1409 156.003 56.3369C154.838 49.5329 152.093 43.097 147.989 37.5463C143.886 31.9956 138.537 27.4849 132.373 24.3766C129.056 22.7035 125.552 21.4619 121.947 20.672C116.811 19.5466 112.5 15.3867 112.5 10.1288Z"/>
</mask>
<path d="M112.5 10.1288C112.5 4.87081 116.786 0.535015 121.985 1.32439C128.566 2.32375 134.968 4.36007 140.947 7.37538C149.77 11.8246 157.426 18.2813 163.3 26.2267C169.174 34.172 173.103 43.3845 174.77 53.1238C176.438 62.8632 175.798 72.8579 172.901 82.3048C170.004 91.7518 164.932 100.388 158.092 107.518C151.252 114.649 142.835 120.076 133.516 123.363C124.198 126.65 114.238 127.706 104.438 126.445C97.7964 125.59 91.3532 123.688 85.343 120.826C80.5956 118.566 79.4765 112.573 82.4238 108.219C85.3711 103.865 91.2727 102.836 96.1568 104.783C99.585 106.15 103.183 107.085 106.868 107.56C113.715 108.44 120.672 107.703 127.182 105.407C133.692 103.11 139.572 99.3191 144.351 94.3375C149.13 89.3558 152.673 83.3228 154.697 76.7231C156.72 70.1233 157.168 63.1409 156.003 56.3369C154.838 49.5329 152.093 43.097 147.989 37.5463C143.886 31.9956 138.537 27.4849 132.373 24.3766C129.056 22.7035 125.552 21.4619 121.947 20.672C116.811 19.5466 112.5 15.3867 112.5 10.1288Z" stroke="#8F3CFF" stroke-width="37.9058" mask="url(#path-3-inside-2_578_5240)"/>
<mask id="path-4-inside-3_578_5240" fill="white">
<path d="M112.5 10.1288C112.5 4.87081 116.786 0.535022 121.985 1.32439C127.667 2.18729 133.22 3.82394 138.486 6.20039C146.654 9.8862 153.944 15.2673 159.873 21.9864C165.801 28.7055 170.232 36.609 172.872 45.1719C174.575 50.693 175.507 56.4067 175.655 62.1526C175.791 67.4088 170.955 71.1216 165.738 70.4668C160.521 69.812 156.931 65.0168 156.454 59.7806C156.176 56.7359 155.583 53.7197 154.677 50.7816C152.832 44.7995 149.737 39.2781 145.595 34.584C141.453 29.89 136.36 26.1307 130.654 23.5557C127.852 22.2911 124.933 21.3264 121.947 20.672C116.811 19.5466 112.5 15.3867 112.5 10.1288Z"/>
</mask>
<path d="M112.5 10.1288C112.5 4.87081 116.786 0.535022 121.985 1.32439C127.667 2.18729 133.22 3.82394 138.486 6.20039C146.654 9.8862 153.944 15.2673 159.873 21.9864C165.801 28.7055 170.232 36.609 172.872 45.1719C174.575 50.693 175.507 56.4067 175.655 62.1526C175.791 67.4088 170.955 71.1216 165.738 70.4668C160.521 69.812 156.931 65.0168 156.454 59.7806C156.176 56.7359 155.583 53.7197 154.677 50.7816C152.832 44.7995 149.737 39.2781 145.595 34.584C141.453 29.89 136.36 26.1307 130.654 23.5557C127.852 22.2911 124.933 21.3264 121.947 20.672C116.811 19.5466 112.5 15.3867 112.5 10.1288Z" stroke="#2567F9" stroke-width="37.9058" mask="url(#path-4-inside-3_578_5240)"/>
<circle cx="5.26803" cy="171.961" r="4.76803" fill="#2567F9"/>
<path d="M27.4452 177.961L27.4452 166.325H34.4225V167.575H28.8543V171.506H33.8998V172.756H28.8543L28.8543 177.961H27.4452ZM41.6072 174.393V169.234H42.9481V177.961H41.6072V176.484H41.5162C41.3117 176.927 40.9935 177.304 40.5617 177.614C40.1299 177.921 39.5844 178.075 38.9253 178.075C38.3799 178.075 37.895 177.955 37.4708 177.717C37.0465 177.474 36.7132 177.111 36.4708 176.626C36.2284 176.137 36.1072 175.522 36.1072 174.779V169.234H37.4481V174.688C37.4481 175.325 37.6261 175.832 37.9822 176.211C38.342 176.59 38.8003 176.779 39.3572 176.779C39.6905 176.779 40.0295 176.694 40.3742 176.523C40.7227 176.353 41.0144 176.092 41.2492 175.739C41.4878 175.387 41.6072 174.938 41.6072 174.393ZM46.7449 172.711V177.961H45.404V169.234H46.6995V170.597H46.8131C47.0177 170.154 47.3283 169.798 47.7449 169.529C48.1616 169.256 48.6995 169.12 49.3586 169.12C49.9495 169.12 50.4665 169.241 50.9097 169.484C51.3529 169.722 51.6976 170.086 51.9438 170.575C52.19 171.059 52.3131 171.673 52.3131 172.415V177.961H50.9722V172.506C50.9722 171.821 50.7942 171.287 50.4381 170.904C50.0821 170.518 49.5934 170.325 48.9722 170.325C48.5442 170.325 48.1616 170.417 47.8245 170.603C47.4912 170.789 47.2279 171.059 47.0347 171.415C46.8415 171.772 46.7449 172.203 46.7449 172.711ZM58.0589 178.143C57.3316 178.143 56.6895 177.959 56.1327 177.592C55.5759 177.22 55.1403 176.698 54.8259 176.023C54.5115 175.345 54.3543 174.544 54.3543 173.62C54.3543 172.703 54.5115 171.908 54.8259 171.234C55.1403 170.559 55.5778 170.039 56.1384 169.671C56.699 169.304 57.3467 169.12 58.0816 169.12C58.6498 169.12 59.0986 169.215 59.4282 169.404C59.7615 169.59 60.0153 169.802 60.1895 170.04C60.3676 170.275 60.5058 170.469 60.6043 170.62H60.718V166.325H62.0589V177.961H60.7634V176.62H60.6043C60.5058 176.779 60.3657 176.98 60.1839 177.222C60.002 177.461 59.7426 177.675 59.4055 177.864C59.0683 178.05 58.6195 178.143 58.0589 178.143ZM58.2407 176.938C58.7786 176.938 59.2331 176.798 59.6043 176.518C59.9755 176.234 60.2577 175.842 60.4509 175.342C60.6441 174.838 60.7407 174.256 60.7407 173.597C60.7407 172.946 60.646 172.376 60.4566 171.887C60.2672 171.395 59.9869 171.012 59.6157 170.739C59.2445 170.463 58.7861 170.325 58.2407 170.325C57.6725 170.325 57.199 170.47 56.8202 170.762C56.4452 171.05 56.163 171.442 55.9736 171.938C55.788 172.431 55.6952 172.984 55.6952 173.597C55.6952 174.219 55.7899 174.783 55.9793 175.29C56.1725 175.794 56.4566 176.196 56.8316 176.495C57.2104 176.79 57.6801 176.938 58.2407 176.938ZM68.2464 178.143C67.4585 178.143 66.7672 177.955 66.1725 177.58C65.5816 177.205 65.1195 176.681 64.7861 176.006C64.4566 175.332 64.2918 174.544 64.2918 173.643C64.2918 172.734 64.4566 171.94 64.7861 171.262C65.1195 170.584 65.5816 170.058 66.1725 169.683C66.7672 169.308 67.4585 169.12 68.2464 169.12C69.0342 169.12 69.7236 169.308 70.3145 169.683C70.9092 170.058 71.3714 170.584 71.7009 171.262C72.0342 171.94 72.2009 172.734 72.2009 173.643C72.2009 174.544 72.0342 175.332 71.7009 176.006C71.3714 176.681 70.9092 177.205 70.3145 177.58C69.7236 177.955 69.0342 178.143 68.2464 178.143ZM68.2464 176.938C68.8448 176.938 69.3373 176.785 69.7236 176.478C70.11 176.171 70.396 175.768 70.5816 175.268C70.7672 174.768 70.86 174.226 70.86 173.643C70.86 173.059 70.7672 172.516 70.5816 172.012C70.396 171.508 70.11 171.101 69.7236 170.79C69.3373 170.48 68.8448 170.325 68.2464 170.325C67.6479 170.325 67.1555 170.48 66.7691 170.79C66.3827 171.101 66.0967 171.508 65.9111 172.012C65.7255 172.516 65.6327 173.059 65.6327 173.643C65.6327 174.226 65.7255 174.768 65.9111 175.268C66.0967 175.768 66.3827 176.171 66.7691 176.478C67.1555 176.785 67.6479 176.938 68.2464 176.938ZM80.4296 171.188L79.2251 171.529C79.1493 171.328 79.0376 171.133 78.8898 170.944C78.7459 170.751 78.5489 170.592 78.2989 170.467C78.0489 170.342 77.7288 170.279 77.3387 170.279C76.8046 170.279 76.3595 170.402 76.0035 170.648C75.6512 170.891 75.4751 171.2 75.4751 171.575C75.4751 171.908 75.5963 172.171 75.8387 172.364C76.0811 172.558 76.4599 172.719 76.9751 172.847L78.2705 173.165C79.0508 173.355 79.6323 173.645 80.0148 174.035C80.3974 174.421 80.5887 174.919 80.5887 175.529C80.5887 176.029 80.4448 176.476 80.1569 176.87C79.8728 177.264 79.4751 177.575 78.9637 177.802C78.4523 178.029 77.8576 178.143 77.1796 178.143C76.2894 178.143 75.5527 177.95 74.9694 177.563C74.386 177.177 74.0167 176.612 73.8614 175.87L75.1341 175.552C75.2554 176.022 75.4845 176.374 75.8216 176.609C76.1626 176.844 76.6076 176.961 77.1569 176.961C77.7819 176.961 78.2781 176.828 78.6455 176.563C79.0167 176.294 79.2023 175.972 79.2023 175.597C79.2023 175.294 79.0963 175.04 78.8841 174.836C78.672 174.628 78.3463 174.472 77.9069 174.37L76.4523 174.029C75.6531 173.84 75.066 173.546 74.691 173.148C74.3198 172.747 74.1341 172.245 74.1341 171.643C74.1341 171.15 74.2724 170.715 74.5489 170.336C74.8292 169.957 75.2099 169.66 75.691 169.444C76.1758 169.228 76.7251 169.12 77.3387 169.12C78.2023 169.12 78.8804 169.309 79.3728 169.688C79.869 170.067 80.2213 170.567 80.4296 171.188ZM90.4026 178.143C89.6753 178.143 89.0333 177.959 88.4765 177.592C87.9197 177.22 87.484 176.698 87.1697 176.023C86.8553 175.345 86.6981 174.544 86.6981 173.62C86.6981 172.703 86.8553 171.908 87.1697 171.234C87.484 170.559 87.9215 170.039 88.4822 169.671C89.0428 169.304 89.6905 169.12 90.4253 169.12C90.9935 169.12 91.4424 169.215 91.7719 169.404C92.1053 169.59 92.359 169.802 92.5333 170.04C92.7113 170.275 92.8496 170.469 92.9481 170.62H93.0617V166.325H94.4026V177.961H93.1072V176.62H92.9481C92.8496 176.779 92.7094 176.98 92.5276 177.222C92.3458 177.461 92.0863 177.675 91.7492 177.864C91.4121 178.05 90.9632 178.143 90.4026 178.143ZM90.5844 176.938C91.1223 176.938 91.5769 176.798 91.9481 176.518C92.3193 176.234 92.6015 175.842 92.7947 175.342C92.9878 174.838 93.0844 174.256 93.0844 173.597C93.0844 172.946 92.9897 172.376 92.8003 171.887C92.6109 171.395 92.3306 171.012 91.9594 170.739C91.5882 170.463 91.1299 170.325 90.5844 170.325C90.0162 170.325 89.5428 170.47 89.164 170.762C88.789 171.05 88.5068 171.442 88.3174 171.938C88.1318 172.431 88.039 172.984 88.039 173.597C88.039 174.219 88.1337 174.783 88.3231 175.29C88.5162 175.794 88.8003 176.196 89.1753 176.495C89.5541 176.79 90.0238 176.938 90.5844 176.938ZM100.704 178.143C99.8628 178.143 99.1375 177.957 98.5276 177.586C97.9215 177.211 97.4537 176.688 97.1242 176.018C96.7984 175.344 96.6356 174.559 96.6356 173.665C96.6356 172.772 96.7984 171.984 97.1242 171.302C97.4537 170.616 97.9121 170.082 98.4992 169.7C99.0901 169.313 99.7795 169.12 100.567 169.12C101.022 169.12 101.471 169.196 101.914 169.347C102.357 169.499 102.761 169.745 103.124 170.086C103.488 170.423 103.778 170.87 103.994 171.427C104.209 171.984 104.317 172.669 104.317 173.484V174.052H97.5901V172.893H102.954C102.954 172.4 102.855 171.961 102.658 171.575C102.465 171.188 102.189 170.883 101.829 170.66C101.473 170.436 101.052 170.325 100.567 170.325C100.033 170.325 99.5712 170.457 99.181 170.722C98.7947 170.984 98.4973 171.325 98.289 171.745C98.0806 172.165 97.9765 172.616 97.9765 173.097V173.87C97.9765 174.529 98.0901 175.088 98.3174 175.546C98.5484 176.001 98.8685 176.347 99.2776 176.586C99.6867 176.821 100.162 176.938 100.704 176.938C101.056 176.938 101.374 176.889 101.658 176.79C101.946 176.688 102.194 176.537 102.403 176.336C102.611 176.131 102.772 175.878 102.886 175.575L104.181 175.938C104.045 176.378 103.815 176.764 103.494 177.097C103.172 177.427 102.774 177.684 102.3 177.87C101.827 178.052 101.295 178.143 100.704 178.143ZM110.857 177.961V169.234H112.198V177.961H110.857ZM111.539 167.779C111.278 167.779 111.052 167.69 110.863 167.512C110.677 167.334 110.584 167.12 110.584 166.87C110.584 166.62 110.677 166.406 110.863 166.228C111.052 166.05 111.278 165.961 111.539 165.961C111.8 165.961 112.024 166.05 112.209 166.228C112.399 166.406 112.494 166.62 112.494 166.87C112.494 167.12 112.399 167.334 112.209 167.512C112.024 167.69 111.8 167.779 111.539 167.779ZM115.995 172.711V177.961H114.654V169.234H115.949V170.597H116.063C116.268 170.154 116.578 169.798 116.995 169.529C117.412 169.256 117.949 169.12 118.609 169.12C119.199 169.12 119.717 169.241 120.16 169.484C120.603 169.722 120.948 170.086 121.194 170.575C121.44 171.059 121.563 171.673 121.563 172.415V177.961H120.222V172.506C120.222 171.821 120.044 171.287 119.688 170.904C119.332 170.518 118.843 170.325 118.222 170.325C117.794 170.325 117.412 170.417 117.074 170.603C116.741 170.789 116.478 171.059 116.285 171.415C116.092 171.772 115.995 172.203 115.995 172.711ZM130.837 169.234L127.61 177.961H126.246L123.019 169.234H124.474L126.883 176.188H126.974L129.383 169.234H130.837ZM135.954 178.143C135.113 178.143 134.387 177.957 133.778 177.586C133.172 177.211 132.704 176.688 132.374 176.018C132.048 175.344 131.886 174.559 131.886 173.665C131.886 172.772 132.048 171.984 132.374 171.302C132.704 170.616 133.162 170.082 133.749 169.7C134.34 169.313 135.03 169.12 135.817 169.12C136.272 169.12 136.721 169.196 137.164 169.347C137.607 169.499 138.011 169.745 138.374 170.086C138.738 170.423 139.028 170.87 139.244 171.427C139.459 171.984 139.567 172.669 139.567 173.484V174.052H132.84V172.893H138.204C138.204 172.4 138.105 171.961 137.908 171.575C137.715 171.188 137.439 170.883 137.079 170.66C136.723 170.436 136.302 170.325 135.817 170.325C135.283 170.325 134.821 170.457 134.431 170.722C134.045 170.984 133.747 171.325 133.539 171.745C133.331 172.165 133.226 172.616 133.226 173.097V173.87C133.226 174.529 133.34 175.088 133.567 175.546C133.798 176.001 134.119 176.347 134.528 176.586C134.937 176.821 135.412 176.938 135.954 176.938C136.306 176.938 136.624 176.889 136.908 176.79C137.196 176.688 137.444 176.537 137.653 176.336C137.861 176.131 138.022 175.878 138.136 175.575L139.431 175.938C139.295 176.378 139.065 176.764 138.744 177.097C138.422 177.427 138.024 177.684 137.55 177.87C137.077 178.052 136.545 178.143 135.954 178.143ZM147.789 171.188L146.584 171.529C146.509 171.328 146.397 171.133 146.249 170.944C146.105 170.751 145.908 170.592 145.658 170.467C145.408 170.342 145.088 170.279 144.698 170.279C144.164 170.279 143.719 170.402 143.363 170.648C143.011 170.891 142.834 171.2 142.834 171.575C142.834 171.908 142.956 172.171 143.198 172.364C143.44 172.558 143.819 172.719 144.334 172.847L145.63 173.165C146.41 173.355 146.992 173.645 147.374 174.035C147.757 174.421 147.948 174.919 147.948 175.529C147.948 176.029 147.804 176.476 147.516 176.87C147.232 177.264 146.834 177.575 146.323 177.802C145.812 178.029 145.217 178.143 144.539 178.143C143.649 178.143 142.912 177.95 142.329 177.563C141.745 177.177 141.376 176.612 141.221 175.87L142.494 175.552C142.615 176.022 142.844 176.374 143.181 176.609C143.522 176.844 143.967 176.961 144.516 176.961C145.141 176.961 145.637 176.828 146.005 176.563C146.376 176.294 146.562 175.972 146.562 175.597C146.562 175.294 146.456 175.04 146.244 174.836C146.031 174.628 145.706 174.472 145.266 174.37L143.812 174.029C143.012 173.84 142.425 173.546 142.05 173.148C141.679 172.747 141.494 172.245 141.494 171.643C141.494 171.15 141.632 170.715 141.908 170.336C142.189 169.957 142.569 169.66 143.05 169.444C143.535 169.228 144.084 169.12 144.698 169.12C145.562 169.12 146.24 169.309 146.732 169.688C147.228 170.067 147.581 170.567 147.789 171.188ZM153.762 169.234V170.37H149.239V169.234H153.762ZM150.557 167.143H151.898V175.461C151.898 175.84 151.953 176.124 152.063 176.313C152.177 176.499 152.321 176.624 152.495 176.688C152.673 176.749 152.86 176.779 153.057 176.779C153.205 176.779 153.326 176.772 153.421 176.756C153.516 176.737 153.592 176.722 153.648 176.711L153.921 177.915C153.83 177.95 153.703 177.984 153.54 178.018C153.378 178.056 153.171 178.075 152.921 178.075C152.542 178.075 152.171 177.993 151.807 177.83C151.448 177.667 151.148 177.419 150.91 177.086C150.675 176.753 150.557 176.332 150.557 175.825V167.143ZM155.779 177.961V169.234H157.12V177.961H155.779ZM156.461 167.779C156.199 167.779 155.974 167.69 155.785 167.512C155.599 167.334 155.506 167.12 155.506 166.87C155.506 166.62 155.599 166.406 155.785 166.228C155.974 166.05 156.199 165.961 156.461 165.961C156.722 165.961 156.946 166.05 157.131 166.228C157.321 166.406 157.415 166.62 157.415 166.87C157.415 167.12 157.321 167.334 157.131 167.512C156.946 167.69 156.722 167.779 156.461 167.779ZM159.576 177.961V169.234H160.871V170.597H160.985C161.167 170.131 161.46 169.77 161.866 169.512C162.271 169.251 162.758 169.12 163.326 169.12C163.902 169.12 164.381 169.251 164.763 169.512C165.15 169.77 165.451 170.131 165.667 170.597H165.758C165.981 170.147 166.316 169.789 166.763 169.523C167.21 169.254 167.746 169.12 168.371 169.12C169.152 169.12 169.79 169.364 170.286 169.853C170.782 170.338 171.03 171.094 171.03 172.12V177.961H169.69V172.12C169.69 171.476 169.513 171.016 169.161 170.739C168.809 170.463 168.394 170.325 167.917 170.325C167.303 170.325 166.828 170.51 166.491 170.881C166.154 171.249 165.985 171.715 165.985 172.279V177.961H164.621V171.984C164.621 171.487 164.46 171.088 164.138 170.785C163.816 170.478 163.402 170.325 162.894 170.325C162.546 170.325 162.22 170.417 161.917 170.603C161.618 170.789 161.375 171.046 161.19 171.376C161.008 171.701 160.917 172.078 160.917 172.506V177.961H159.576ZM177.141 178.143C176.3 178.143 175.575 177.957 174.965 177.586C174.359 177.211 173.891 176.688 173.562 176.018C173.236 175.344 173.073 174.559 173.073 173.665C173.073 172.772 173.236 171.984 173.562 171.302C173.891 170.616 174.35 170.082 174.937 169.7C175.528 169.313 176.217 169.12 177.005 169.12C177.459 169.12 177.908 169.196 178.351 169.347C178.795 169.499 179.198 169.745 179.562 170.086C179.925 170.423 180.215 170.87 180.431 171.427C180.647 171.984 180.755 172.669 180.755 173.484V174.052H174.028V172.893H179.391C179.391 172.4 179.293 171.961 179.096 171.575C178.903 171.188 178.626 170.883 178.266 170.66C177.91 170.436 177.49 170.325 177.005 170.325C176.471 170.325 176.009 170.457 175.619 170.722C175.232 170.984 174.935 171.325 174.726 171.745C174.518 172.165 174.414 172.616 174.414 173.097V173.87C174.414 174.529 174.528 175.088 174.755 175.546C174.986 176.001 175.306 176.347 175.715 176.586C176.124 176.821 176.6 176.938 177.141 176.938C177.494 176.938 177.812 176.889 178.096 176.79C178.384 176.688 178.632 176.537 178.84 176.336C179.048 176.131 179.209 175.878 179.323 175.575L180.619 175.938C180.482 176.378 180.253 176.764 179.931 177.097C179.609 177.427 179.211 177.684 178.738 177.87C178.264 178.052 177.732 178.143 177.141 178.143ZM184.136 172.711V177.961H182.795V169.234H184.09V170.597H184.204C184.408 170.154 184.719 169.798 185.136 169.529C185.552 169.256 186.09 169.12 186.749 169.12C187.34 169.12 187.857 169.241 188.3 169.484C188.744 169.722 189.088 170.086 189.334 170.575C189.581 171.059 189.704 171.673 189.704 172.415V177.961H188.363V172.506C188.363 171.821 188.185 171.287 187.829 170.904C187.473 170.518 186.984 170.325 186.363 170.325C185.935 170.325 185.552 170.417 185.215 170.603C184.882 170.789 184.619 171.059 184.425 171.415C184.232 171.772 184.136 172.203 184.136 172.711ZM195.949 169.234V170.37H191.427V169.234H195.949ZM192.745 167.143H194.086V175.461C194.086 175.84 194.141 176.124 194.251 176.313C194.364 176.499 194.508 176.624 194.682 176.688C194.86 176.749 195.048 176.779 195.245 176.779C195.393 176.779 195.514 176.772 195.609 176.756C195.703 176.737 195.779 176.722 195.836 176.711L196.109 177.915C196.018 177.95 195.891 177.984 195.728 178.018C195.565 178.056 195.359 178.075 195.109 178.075C194.73 178.075 194.359 177.993 193.995 177.83C193.635 177.667 193.336 177.419 193.097 177.086C192.862 176.753 192.745 176.332 192.745 175.825V167.143ZM201.418 178.143C200.63 178.143 199.939 177.955 199.344 177.58C198.753 177.205 198.291 176.681 197.958 176.006C197.628 175.332 197.464 174.544 197.464 173.643C197.464 172.734 197.628 171.94 197.958 171.262C198.291 170.584 198.753 170.058 199.344 169.683C199.939 169.308 200.63 169.12 201.418 169.12C202.206 169.12 202.896 169.308 203.486 169.683C204.081 170.058 204.543 170.584 204.873 171.262C205.206 171.94 205.373 172.734 205.373 173.643C205.373 174.544 205.206 175.332 204.873 176.006C204.543 176.681 204.081 177.205 203.486 177.58C202.896 177.955 202.206 178.143 201.418 178.143ZM201.418 176.938C202.017 176.938 202.509 176.785 202.896 176.478C203.282 176.171 203.568 175.768 203.753 175.268C203.939 174.768 204.032 174.226 204.032 173.643C204.032 173.059 203.939 172.516 203.753 172.012C203.568 171.508 203.282 171.101 202.896 170.79C202.509 170.48 202.017 170.325 201.418 170.325C200.82 170.325 200.327 170.48 199.941 170.79C199.555 171.101 199.269 171.508 199.083 172.012C198.897 172.516 198.805 173.059 198.805 173.643C198.805 174.226 198.897 174.768 199.083 175.268C199.269 175.768 199.555 176.171 199.941 176.478C200.327 176.785 200.82 176.938 201.418 176.938Z" fill="white"/>
<circle cx="5.26803" cy="213.961" r="4.76803" fill="#8F3CFF"/>
<path d="M26.8089 209.575V208.325H35.5361V209.575H31.877L31.877 219.961H30.468L30.468 209.575H26.8089ZM39.9225 220.143C39.0816 220.143 38.3562 219.957 37.7464 219.586C37.1403 219.211 36.6725 218.688 36.343 218.018C36.0172 217.344 35.8543 216.559 35.8543 215.665C35.8543 214.772 36.0172 213.984 36.343 213.302C36.6725 212.616 37.1308 212.082 37.718 211.7C38.3089 211.313 38.9983 211.12 39.7861 211.12C40.2407 211.12 40.6895 211.196 41.1327 211.347C41.5759 211.499 41.9793 211.745 42.343 212.086C42.7066 212.423 42.9964 212.87 43.2123 213.427C43.4282 213.984 43.5361 214.669 43.5361 215.484V216.052H36.8089V214.893H42.1725C42.1725 214.4 42.074 213.961 41.877 213.575C41.6839 213.188 41.4073 212.883 41.0475 212.66C40.6914 212.436 40.271 212.325 39.7861 212.325C39.252 212.325 38.7899 212.457 38.3998 212.722C38.0134 212.984 37.7161 213.325 37.5077 213.745C37.2994 214.165 37.1952 214.616 37.1952 215.097V215.87C37.1952 216.529 37.3089 217.088 37.5361 217.546C37.7672 218.001 38.0873 218.347 38.4964 218.586C38.9055 218.821 39.3808 218.938 39.9225 218.938C40.2748 218.938 40.593 218.889 40.877 218.79C41.1649 218.688 41.413 218.537 41.6214 218.336C41.8297 218.131 41.9907 217.878 42.1043 217.575L43.3998 217.938C43.2634 218.378 43.0342 218.764 42.7123 219.097C42.3903 219.427 41.9926 219.684 41.5191 219.87C41.0456 220.052 40.5134 220.143 39.9225 220.143ZM51.7577 213.188L50.5532 213.529C50.4774 213.328 50.3657 213.133 50.218 212.944C50.074 212.751 49.877 212.592 49.627 212.467C49.377 212.342 49.057 212.279 48.6668 212.279C48.1327 212.279 47.6876 212.402 47.3316 212.648C46.9793 212.891 46.8032 213.2 46.8032 213.575C46.8032 213.908 46.9244 214.171 47.1668 214.364C47.4092 214.558 47.788 214.719 48.3032 214.847L49.5986 215.165C50.3789 215.355 50.9604 215.645 51.343 216.035C51.7255 216.421 51.9168 216.919 51.9168 217.529C51.9168 218.029 51.7729 218.476 51.485 218.87C51.2009 219.264 50.8032 219.575 50.2918 219.802C49.7805 220.029 49.1858 220.143 48.5077 220.143C47.6176 220.143 46.8808 219.95 46.2975 219.563C45.7142 219.177 45.3448 218.612 45.1895 217.87L46.4623 217.552C46.5835 218.022 46.8126 218.374 47.1498 218.609C47.4907 218.844 47.9358 218.961 48.485 218.961C49.11 218.961 49.6062 218.828 49.9736 218.563C50.3448 218.294 50.5305 217.972 50.5305 217.597C50.5305 217.294 50.4244 217.04 50.2123 216.836C50.0001 216.628 49.6744 216.472 49.235 216.37L47.7805 216.029C46.9812 215.84 46.3941 215.546 46.0191 215.148C45.6479 214.747 45.4623 214.245 45.4623 213.643C45.4623 213.15 45.6005 212.715 45.877 212.336C46.1573 211.957 46.538 211.66 47.0191 211.444C47.5039 211.228 48.0532 211.12 48.6668 211.12C49.5305 211.12 50.2085 211.309 50.7009 211.688C51.1971 212.067 51.5494 212.567 51.7577 213.188ZM57.4807 220.143C56.6929 220.143 56.0016 219.955 55.4069 219.58C54.816 219.205 54.3538 218.681 54.0205 218.006C53.691 217.332 53.5262 216.544 53.5262 215.643C53.5262 214.734 53.691 213.94 54.0205 213.262C54.3538 212.584 54.816 212.058 55.4069 211.683C56.0016 211.308 56.6929 211.12 57.4807 211.12C58.2686 211.12 58.958 211.308 59.5489 211.683C60.1436 212.058 60.6057 212.584 60.9353 213.262C61.2686 213.94 61.4353 214.734 61.4353 215.643C61.4353 216.544 61.2686 217.332 60.9353 218.006C60.6057 218.681 60.1436 219.205 59.5489 219.58C58.958 219.955 58.2686 220.143 57.4807 220.143ZM57.4807 218.938C58.0792 218.938 58.5716 218.785 58.958 218.478C59.3444 218.171 59.6304 217.768 59.816 217.268C60.0016 216.768 60.0944 216.226 60.0944 215.643C60.0944 215.059 60.0016 214.516 59.816 214.012C59.6304 213.508 59.3444 213.101 58.958 212.79C58.5716 212.48 58.0792 212.325 57.4807 212.325C56.8823 212.325 56.3898 212.48 56.0035 212.79C55.6171 213.101 55.3311 213.508 55.1455 214.012C54.9599 214.516 54.8671 215.059 54.8671 215.643C54.8671 216.226 54.9599 216.768 55.1455 217.268C55.3311 217.768 55.6171 218.171 56.0035 218.478C56.3898 218.785 56.8823 218.938 57.4807 218.938ZM68.9822 216.393V211.234H70.3231V219.961H68.9822V218.484H68.8912C68.6867 218.927 68.3685 219.304 67.9367 219.614C67.5049 219.921 66.9594 220.075 66.3003 220.075C65.7549 220.075 65.27 219.955 64.8458 219.717C64.4215 219.474 64.0882 219.111 63.8458 218.626C63.6034 218.137 63.4822 217.522 63.4822 216.779V211.234H64.8231V216.688C64.8231 217.325 65.0011 217.832 65.3572 218.211C65.717 218.59 66.1753 218.779 66.7322 218.779C67.0655 218.779 67.4045 218.694 67.7492 218.523C68.0977 218.353 68.3894 218.092 68.6242 217.739C68.8628 217.387 68.9822 216.938 68.9822 216.393ZM72.779 219.961V211.234H74.0745V212.552H74.1654C74.3245 212.12 74.6124 211.77 75.029 211.501C75.4457 211.232 75.9154 211.097 76.4381 211.097C76.5366 211.097 76.6597 211.099 76.8074 211.103C76.9552 211.107 77.0669 211.112 77.1427 211.12V212.484C77.0972 212.472 76.993 212.455 76.8302 212.433C76.6711 212.406 76.5025 212.393 76.3245 212.393C75.9002 212.393 75.5215 212.482 75.1881 212.66C74.8586 212.834 74.5972 213.076 74.404 213.387C74.2146 213.694 74.1199 214.044 74.1199 214.438V219.961H72.779ZM82.012 220.143C81.2241 220.143 80.5328 219.955 79.9381 219.58C79.3472 219.205 78.8851 218.681 78.5518 218.006C78.2222 217.332 78.0574 216.544 78.0574 215.643C78.0574 214.734 78.2222 213.94 78.5518 213.262C78.8851 212.584 79.3472 212.058 79.9381 211.683C80.5328 211.308 81.2241 211.12 82.012 211.12C82.7999 211.12 83.4893 211.308 84.0802 211.683C84.6749 212.058 85.137 212.584 85.4665 213.262C85.7999 213.94 85.9665 214.734 85.9665 215.643C85.9665 216.544 85.7999 217.332 85.4665 218.006C85.137 218.681 84.6749 219.205 84.0802 219.58C83.4893 219.955 82.7999 220.143 82.012 220.143ZM82.012 218.938C82.6105 218.938 83.1029 218.785 83.4893 218.478C83.8756 218.171 84.1616 217.768 84.3472 217.268C84.5328 216.768 84.6256 216.226 84.6256 215.643C84.6256 215.059 84.5328 214.516 84.3472 214.012C84.1616 213.508 83.8756 213.101 83.4893 212.79C83.1029 212.48 82.6105 212.325 82.012 212.325C81.4135 212.325 80.9211 212.48 80.5347 212.79C80.1483 213.101 79.8624 213.508 79.6768 214.012C79.4912 214.516 79.3983 215.059 79.3983 215.643C79.3983 216.226 79.4912 216.768 79.6768 217.268C79.8624 217.768 80.1483 218.171 80.5347 218.478C80.9211 218.785 81.4135 218.938 82.012 218.938ZM96.2861 219.961H92.6952V208.325H96.4452C97.574 208.325 98.5399 208.558 99.343 209.023C100.146 209.486 100.762 210.15 101.19 211.018C101.618 211.881 101.832 212.915 101.832 214.12C101.832 215.332 101.616 216.376 101.184 217.251C100.752 218.122 100.123 218.792 99.2975 219.262C98.4717 219.728 97.468 219.961 96.2861 219.961ZM94.1043 218.711H96.1952C97.1573 218.711 97.9547 218.525 98.5873 218.154C99.2198 217.783 99.6914 217.254 100.002 216.569C100.313 215.883 100.468 215.067 100.468 214.12C100.468 213.181 100.315 212.372 100.008 211.694C99.7009 211.012 99.2426 210.489 98.6327 210.126C98.0229 209.758 97.2634 209.575 96.3543 209.575H94.1043V218.711ZM104.013 219.961V211.234H105.354V219.961H104.013ZM104.695 209.779C104.434 209.779 104.208 209.69 104.019 209.512C103.833 209.334 103.741 209.12 103.741 208.87C103.741 208.62 103.833 208.406 104.019 208.228C104.208 208.05 104.434 207.961 104.695 207.961C104.957 207.961 105.18 208.05 105.366 208.228C105.555 208.406 105.65 208.62 105.65 208.87C105.65 209.12 105.555 209.334 105.366 209.512C105.18 209.69 104.957 209.779 104.695 209.779ZM107.81 219.961V211.234H109.106V212.552H109.197C109.356 212.12 109.644 211.77 110.06 211.501C110.477 211.232 110.947 211.097 111.469 211.097C111.568 211.097 111.691 211.099 111.839 211.103C111.986 211.107 112.098 211.112 112.174 211.12V212.484C112.128 212.472 112.024 212.455 111.861 212.433C111.702 212.406 111.534 212.393 111.356 212.393C110.931 212.393 110.553 212.482 110.219 212.66C109.89 212.834 109.628 213.076 109.435 213.387C109.246 213.694 109.151 214.044 109.151 214.438V219.961H107.81ZM117.157 220.143C116.316 220.143 115.591 219.957 114.981 219.586C114.375 219.211 113.907 218.688 113.577 218.018C113.252 217.344 113.089 216.559 113.089 215.665C113.089 214.772 113.252 213.984 113.577 213.302C113.907 212.616 114.365 212.082 114.952 211.7C115.543 211.313 116.233 211.12 117.021 211.12C117.475 211.12 117.924 211.196 118.367 211.347C118.81 211.499 119.214 211.745 119.577 212.086C119.941 212.423 120.231 212.87 120.447 213.427C120.663 213.984 120.771 214.669 120.771 215.484V216.052H114.043V214.893H119.407C119.407 214.4 119.308 213.961 119.111 213.575C118.918 213.188 118.642 212.883 118.282 212.66C117.926 212.436 117.505 212.325 117.021 212.325C116.486 212.325 116.024 212.457 115.634 212.722C115.248 212.984 114.95 213.325 114.742 213.745C114.534 214.165 114.43 214.616 114.43 215.097V215.87C114.43 216.529 114.543 217.088 114.771 217.546C115.002 218.001 115.322 218.347 115.731 218.586C116.14 218.821 116.615 218.938 117.157 218.938C117.509 218.938 117.827 218.889 118.111 218.79C118.399 218.688 118.647 218.537 118.856 218.336C119.064 218.131 119.225 217.878 119.339 217.575L120.634 217.938C120.498 218.378 120.269 218.764 119.947 219.097C119.625 219.427 119.227 219.684 118.753 219.87C118.28 220.052 117.748 220.143 117.157 220.143ZM126.606 211.234V212.37H122.083V211.234H126.606ZM123.401 209.143H124.742V217.461C124.742 217.84 124.797 218.124 124.907 218.313C125.021 218.499 125.164 218.624 125.339 218.688C125.517 218.749 125.704 218.779 125.901 218.779C126.049 218.779 126.17 218.772 126.265 218.756C126.36 218.737 126.435 218.722 126.492 218.711L126.765 219.915C126.674 219.95 126.547 219.984 126.384 220.018C126.221 220.056 126.015 220.075 125.765 220.075C125.386 220.075 125.015 219.993 124.651 219.83C124.291 219.667 123.992 219.419 123.753 219.086C123.519 218.753 123.401 218.332 123.401 217.825V209.143ZM132.074 220.143C131.287 220.143 130.595 219.955 130.001 219.58C129.41 219.205 128.948 218.681 128.614 218.006C128.285 217.332 128.12 216.544 128.12 215.643C128.12 214.734 128.285 213.94 128.614 213.262C128.948 212.584 129.41 212.058 130.001 211.683C130.595 211.308 131.287 211.12 132.074 211.12C132.862 211.12 133.552 211.308 134.143 211.683C134.737 212.058 135.199 212.584 135.529 213.262C135.862 213.94 136.029 214.734 136.029 215.643C136.029 216.544 135.862 217.332 135.529 218.006C135.199 218.681 134.737 219.205 134.143 219.58C133.552 219.955 132.862 220.143 132.074 220.143ZM132.074 218.938C132.673 218.938 133.165 218.785 133.552 218.478C133.938 218.171 134.224 217.768 134.41 217.268C134.595 216.768 134.688 216.226 134.688 215.643C134.688 215.059 134.595 214.516 134.41 214.012C134.224 213.508 133.938 213.101 133.552 212.79C133.165 212.48 132.673 212.325 132.074 212.325C131.476 212.325 130.984 212.48 130.597 212.79C130.211 213.101 129.925 213.508 129.739 214.012C129.554 214.516 129.461 215.059 129.461 215.643C129.461 216.226 129.554 216.768 129.739 217.268C129.925 217.768 130.211 218.171 130.597 218.478C130.984 218.785 131.476 218.938 132.074 218.938Z" fill="white"/>
<circle cx="5.26803" cy="255.961" r="4.76803" fill="#FF3C82"/>
<path d="M27.4452 261.961L27.4452 250.325H31.377C32.2899 250.325 33.0361 250.489 33.6157 250.819C34.199 251.145 34.6308 251.586 34.9111 252.143C35.1914 252.7 35.3316 253.321 35.3316 254.006C35.3316 254.692 35.1914 255.315 34.9111 255.876C34.6346 256.436 34.2066 256.883 33.627 257.217C33.0475 257.546 32.3051 257.711 31.3998 257.711H28.5816V256.461H31.3543C31.9793 256.461 32.4812 256.353 32.86 256.137C33.2388 255.921 33.5134 255.629 33.6839 255.262C33.8581 254.891 33.9452 254.472 33.9452 254.006C33.9452 253.54 33.8581 253.124 33.6839 252.756C33.5134 252.389 33.2369 252.101 32.8543 251.893C32.4717 251.681 31.9642 251.575 31.3316 251.575H28.8543L28.8543 261.961H27.4452ZM37.4197 261.961V253.234H38.7151V254.552H38.806C38.9651 254.12 39.253 253.77 39.6697 253.501C40.0863 253.232 40.556 253.097 41.0787 253.097C41.1772 253.097 41.3003 253.099 41.4481 253.103C41.5958 253.107 41.7075 253.112 41.7833 253.12V254.484C41.7378 254.472 41.6337 254.455 41.4708 254.433C41.3117 254.406 41.1431 254.393 40.9651 254.393C40.5409 254.393 40.1621 254.482 39.8287 254.66C39.4992 254.834 39.2378 255.076 39.0447 255.387C38.8553 255.694 38.7606 256.044 38.7606 256.438V261.961H37.4197ZM46.7662 262.143C45.9253 262.143 45.2 261.957 44.5901 261.586C43.984 261.211 43.5162 260.688 43.1867 260.018C42.8609 259.344 42.6981 258.559 42.6981 257.665C42.6981 256.772 42.8609 255.984 43.1867 255.302C43.5162 254.616 43.9746 254.082 44.5617 253.7C45.1526 253.313 45.842 253.12 46.6299 253.12C47.0844 253.12 47.5333 253.196 47.9765 253.347C48.4197 253.499 48.8231 253.745 49.1867 254.086C49.5503 254.423 49.8401 254.87 50.056 255.427C50.2719 255.984 50.3799 256.669 50.3799 257.484V258.052H43.6526V256.893H49.0162C49.0162 256.4 48.9178 255.961 48.7208 255.575C48.5276 255.188 48.2511 254.883 47.8912 254.66C47.5352 254.436 47.1147 254.325 46.6299 254.325C46.0958 254.325 45.6337 254.457 45.2435 254.722C44.8572 254.984 44.5598 255.325 44.3515 255.745C44.1431 256.165 44.039 256.616 44.039 257.097V257.87C44.039 258.529 44.1526 259.088 44.3799 259.546C44.6109 260.001 44.931 260.347 45.3401 260.586C45.7492 260.821 46.2246 260.938 46.7662 260.938C47.1185 260.938 47.4367 260.889 47.7208 260.79C48.0087 260.688 48.2568 260.537 48.4651 260.336C48.6734 260.131 48.8344 259.878 48.9481 259.575L50.2435 259.938C50.1072 260.378 49.878 260.764 49.556 261.097C49.234 261.427 48.8363 261.684 48.3628 261.87C47.8894 262.052 47.3572 262.143 46.7662 262.143ZM59.2904 253.234L56.0631 261.961H54.6995L51.4722 253.234H52.9268L55.3358 260.188H55.4268L57.8358 253.234H59.2904ZM61.0603 261.961V253.234H62.4012V261.961H61.0603ZM61.7421 251.779C61.4807 251.779 61.2554 251.69 61.066 251.512C60.8804 251.334 60.7876 251.12 60.7876 250.87C60.7876 250.62 60.8804 250.406 61.066 250.228C61.2554 250.05 61.4807 249.961 61.7421 249.961C62.0035 249.961 62.2269 250.05 62.4126 250.228C62.6019 250.406 62.6966 250.62 62.6966 250.87C62.6966 251.12 62.6019 251.334 62.4126 251.512C62.2269 251.69 62.0035 251.779 61.7421 251.779ZM68.1526 262.143C67.4253 262.143 66.7833 261.959 66.2265 261.592C65.6697 261.22 65.234 260.698 64.9197 260.023C64.6053 259.345 64.4481 258.544 64.4481 257.62C64.4481 256.703 64.6053 255.908 64.9197 255.234C65.234 254.559 65.6715 254.039 66.2322 253.671C66.7928 253.304 67.4405 253.12 68.1753 253.12C68.7435 253.12 69.1924 253.215 69.5219 253.404C69.8553 253.59 70.109 253.802 70.2833 254.04C70.4613 254.275 70.5996 254.469 70.6981 254.62H70.8117V250.325H72.1526V261.961H70.8572V260.62H70.6981C70.5996 260.779 70.4594 260.98 70.2776 261.222C70.0958 261.461 69.8363 261.675 69.4992 261.864C69.1621 262.05 68.7132 262.143 68.1526 262.143ZM68.3344 260.938C68.8723 260.938 69.3269 260.798 69.6981 260.518C70.0693 260.234 70.3515 259.842 70.5447 259.342C70.7378 258.838 70.8344 258.256 70.8344 257.597C70.8344 256.946 70.7397 256.376 70.5503 255.887C70.3609 255.395 70.0806 255.012 69.7094 254.739C69.3382 254.463 68.8799 254.325 68.3344 254.325C67.7662 254.325 67.2928 254.47 66.914 254.762C66.539 255.05 66.2568 255.442 66.0674 255.938C65.8818 256.431 65.789 256.984 65.789 257.597C65.789 258.219 65.8837 258.783 66.0731 259.29C66.2662 259.794 66.5503 260.196 66.9253 260.495C67.3041 260.79 67.7738 260.938 68.3344 260.938ZM78.4537 262.143C77.6128 262.143 76.8875 261.957 76.2776 261.586C75.6715 261.211 75.2037 260.688 74.8742 260.018C74.5484 259.344 74.3856 258.559 74.3856 257.665C74.3856 256.772 74.5484 255.984 74.8742 255.302C75.2037 254.616 75.6621 254.082 76.2492 253.7C76.8401 253.313 77.5295 253.12 78.3174 253.12C78.7719 253.12 79.2208 253.196 79.664 253.347C80.1072 253.499 80.5106 253.745 80.8742 254.086C81.2378 254.423 81.5276 254.87 81.7435 255.427C81.9594 255.984 82.0674 256.669 82.0674 257.484V258.052H75.3401V256.893H80.7037C80.7037 256.4 80.6053 255.961 80.4083 255.575C80.2151 255.188 79.9386 254.883 79.5787 254.66C79.2227 254.436 78.8022 254.325 78.3174 254.325C77.7833 254.325 77.3212 254.457 76.931 254.722C76.5447 254.984 76.2473 255.325 76.039 255.745C75.8306 256.165 75.7265 256.616 75.7265 257.097V257.87C75.7265 258.529 75.8401 259.088 76.0674 259.546C76.2984 260.001 76.6185 260.347 77.0276 260.586C77.4367 260.821 77.9121 260.938 78.4537 260.938C78.806 260.938 79.1242 260.889 79.4083 260.79C79.6962 260.688 79.9443 260.537 80.1526 260.336C80.3609 260.131 80.5219 259.878 80.6356 259.575L81.931 259.938C81.7947 260.378 81.5655 260.764 81.2435 261.097C80.9215 261.427 80.5238 261.684 80.0503 261.87C79.5769 262.052 79.0447 262.143 78.4537 262.143ZM79.431 252.188L78.2492 250.597L77.0674 252.188H75.7947V252.097L77.6356 249.734H78.8628L80.7037 252.097V252.188H79.431ZM85.4481 256.711V261.961H84.1072V253.234H85.4026V254.597H85.5162C85.7208 254.154 86.0314 253.798 86.4481 253.529C86.8647 253.256 87.4026 253.12 88.0617 253.12C88.6526 253.12 89.1697 253.241 89.6128 253.484C90.056 253.722 90.4007 254.086 90.6469 254.575C90.8931 255.059 91.0162 255.673 91.0162 256.415V261.961H89.6753V256.506C89.6753 255.821 89.4973 255.287 89.1412 254.904C88.7852 254.518 88.2965 254.325 87.6753 254.325C87.2473 254.325 86.8647 254.417 86.5276 254.603C86.1943 254.789 85.931 255.059 85.7378 255.415C85.5447 255.772 85.4481 256.203 85.4481 256.711ZM97.012 262.143C96.1938 262.143 95.4893 261.95 94.8983 261.563C94.3074 261.177 93.8529 260.645 93.5347 259.967C93.2165 259.289 93.0574 258.514 93.0574 257.643C93.0574 256.756 93.2203 255.974 93.5461 255.296C93.8756 254.614 94.334 254.082 94.9211 253.7C95.512 253.313 96.2014 253.12 96.9893 253.12C97.6029 253.12 98.1559 253.234 98.6483 253.461C99.1408 253.688 99.5442 254.006 99.8586 254.415C100.173 254.825 100.368 255.302 100.444 255.847H99.1029C99.0006 255.45 98.7733 255.097 98.4211 254.79C98.0726 254.48 97.6029 254.325 97.012 254.325C96.4893 254.325 96.0309 254.461 95.637 254.734C95.2468 255.003 94.9419 255.383 94.7222 255.876C94.5063 256.364 94.3983 256.938 94.3983 257.597C94.3983 258.272 94.5044 258.859 94.7165 259.359C94.9324 259.859 95.2355 260.247 95.6256 260.523C96.0196 260.8 96.4817 260.938 97.012 260.938C97.3605 260.938 97.6768 260.878 97.9608 260.756C98.2449 260.635 98.4855 260.461 98.6824 260.234C98.8794 260.006 99.0196 259.734 99.1029 259.415H100.444C100.368 259.931 100.181 260.395 99.8813 260.808C99.5858 261.217 99.1938 261.542 98.7052 261.785C98.2203 262.023 97.6559 262.143 97.012 262.143ZM102.404 261.961V253.234H103.745V261.961H102.404ZM103.086 251.779C102.824 251.779 102.599 251.69 102.41 251.512C102.224 251.334 102.131 251.12 102.131 250.87C102.131 250.62 102.224 250.406 102.41 250.228C102.599 250.05 102.824 249.961 103.086 249.961C103.347 249.961 103.571 250.05 103.756 250.228C103.946 250.406 104.04 250.62 104.04 250.87C104.04 251.12 103.946 251.334 103.756 251.512C103.571 251.69 103.347 251.779 103.086 251.779ZM108.769 262.165C108.216 262.165 107.714 262.061 107.263 261.853C106.813 261.641 106.455 261.336 106.19 260.938C105.924 260.537 105.792 260.052 105.792 259.484C105.792 258.984 105.89 258.578 106.087 258.268C106.284 257.953 106.547 257.707 106.877 257.529C107.207 257.351 107.57 257.219 107.968 257.131C108.369 257.04 108.773 256.969 109.178 256.915C109.708 256.847 110.138 256.796 110.468 256.762C110.801 256.724 111.044 256.662 111.195 256.575C111.351 256.487 111.428 256.336 111.428 256.12V256.075C111.428 255.514 111.275 255.078 110.968 254.768C110.665 254.457 110.205 254.302 109.587 254.302C108.947 254.302 108.445 254.442 108.082 254.722C107.718 255.003 107.462 255.302 107.315 255.62L106.042 255.165C106.269 254.635 106.572 254.222 106.951 253.927C107.333 253.628 107.75 253.419 108.201 253.302C108.655 253.181 109.102 253.12 109.542 253.12C109.822 253.12 110.144 253.154 110.508 253.222C110.875 253.287 111.229 253.421 111.57 253.626C111.915 253.83 112.201 254.139 112.428 254.552C112.655 254.965 112.769 255.518 112.769 256.211V261.961H111.428V260.779H111.36C111.269 260.969 111.118 261.171 110.905 261.387C110.693 261.603 110.411 261.787 110.059 261.938C109.707 262.09 109.277 262.165 108.769 262.165ZM108.974 260.961C109.504 260.961 109.951 260.857 110.315 260.648C110.682 260.44 110.958 260.171 111.144 259.842C111.333 259.512 111.428 259.165 111.428 258.802V257.575C111.371 257.643 111.246 257.705 111.053 257.762C110.864 257.815 110.644 257.862 110.394 257.904C110.148 257.942 109.907 257.976 109.672 258.006C109.441 258.033 109.254 258.056 109.11 258.075C108.762 258.12 108.436 258.194 108.133 258.296C107.833 258.395 107.591 258.544 107.405 258.745C107.224 258.942 107.133 259.211 107.133 259.552C107.133 260.018 107.305 260.37 107.65 260.609C107.998 260.844 108.44 260.961 108.974 260.961ZM119.898 261.961V250.325H123.83C124.743 250.325 125.489 250.489 126.069 250.819C126.652 251.145 127.084 251.586 127.364 252.143C127.645 252.7 127.785 253.321 127.785 254.006C127.785 254.692 127.645 255.315 127.364 255.876C127.088 256.436 126.66 256.883 126.08 257.217C125.501 257.546 124.758 257.711 123.853 257.711H121.035V256.461H123.807C124.432 256.461 124.934 256.353 125.313 256.137C125.692 255.921 125.967 255.629 126.137 255.262C126.311 254.891 126.398 254.472 126.398 254.006C126.398 253.54 126.311 253.124 126.137 252.756C125.967 252.389 125.69 252.101 125.307 251.893C124.925 251.681 124.417 251.575 123.785 251.575H121.307V261.961H119.898ZM129.873 261.961V253.234H131.168V254.552H131.259C131.418 254.12 131.706 253.77 132.123 253.501C132.539 253.232 133.009 253.097 133.532 253.097C133.63 253.097 133.753 253.099 133.901 253.103C134.049 253.107 134.161 253.112 134.236 253.12V254.484C134.191 254.472 134.087 254.455 133.924 254.433C133.765 254.406 133.596 254.393 133.418 254.393C132.994 254.393 132.615 254.482 132.282 254.66C131.952 254.834 131.691 255.076 131.498 255.387C131.308 255.694 131.214 256.044 131.214 256.438V261.961H129.873ZM135.826 261.961V253.234H137.167V261.961H135.826ZM136.508 251.779C136.246 251.779 136.021 251.69 135.832 251.512C135.646 251.334 135.553 251.12 135.553 250.87C135.553 250.62 135.646 250.406 135.832 250.228C136.021 250.05 136.246 249.961 136.508 249.961C136.769 249.961 136.993 250.05 137.178 250.228C137.368 250.406 137.462 250.62 137.462 250.87C137.462 251.12 137.368 251.334 137.178 251.512C136.993 251.69 136.769 251.779 136.508 251.779ZM146.759 253.234L143.532 261.961H142.168L138.941 253.234H140.396L142.805 260.188H142.896L145.305 253.234H146.759ZM150.832 262.165C150.279 262.165 149.777 262.061 149.326 261.853C148.875 261.641 148.517 261.336 148.252 260.938C147.987 260.537 147.854 260.052 147.854 259.484C147.854 258.984 147.953 258.578 148.15 258.268C148.347 257.953 148.61 257.707 148.94 257.529C149.269 257.351 149.633 257.219 150.03 257.131C150.432 257.04 150.835 256.969 151.241 256.915C151.771 256.847 152.201 256.796 152.53 256.762C152.864 256.724 153.106 256.662 153.258 256.575C153.413 256.487 153.491 256.336 153.491 256.12V256.075C153.491 255.514 153.337 255.078 153.03 254.768C152.727 254.457 152.267 254.302 151.65 254.302C151.01 254.302 150.508 254.442 150.144 254.722C149.78 255.003 149.525 255.302 149.377 255.62L148.104 255.165C148.332 254.635 148.635 254.222 149.013 253.927C149.396 253.628 149.813 253.419 150.263 253.302C150.718 253.181 151.165 253.12 151.604 253.12C151.885 253.12 152.207 253.154 152.57 253.222C152.938 253.287 153.292 253.421 153.633 253.626C153.977 253.83 154.263 254.139 154.491 254.552C154.718 254.965 154.832 255.518 154.832 256.211V261.961H153.491V260.779H153.422C153.332 260.969 153.18 261.171 152.968 261.387C152.756 261.603 152.474 261.787 152.121 261.938C151.769 262.09 151.339 262.165 150.832 262.165ZM151.036 260.961C151.566 260.961 152.013 260.857 152.377 260.648C152.744 260.44 153.021 260.171 153.207 259.842C153.396 259.512 153.491 259.165 153.491 258.802V257.575C153.434 257.643 153.309 257.705 153.116 257.762C152.926 257.815 152.707 257.862 152.457 257.904C152.21 257.942 151.97 257.976 151.735 258.006C151.504 258.033 151.316 258.056 151.172 258.075C150.824 258.12 150.498 258.194 150.195 258.296C149.896 258.395 149.654 258.544 149.468 258.745C149.286 258.942 149.195 259.211 149.195 259.552C149.195 260.018 149.368 260.37 149.712 260.609C150.061 260.844 150.502 260.961 151.036 260.961ZM160.574 262.143C159.847 262.143 159.205 261.959 158.648 261.592C158.092 261.22 157.656 260.698 157.342 260.023C157.027 259.345 156.87 258.544 156.87 257.62C156.87 256.703 157.027 255.908 157.342 255.234C157.656 254.559 158.093 254.039 158.654 253.671C159.215 253.304 159.862 253.12 160.597 253.12C161.165 253.12 161.614 253.215 161.944 253.404C162.277 253.59 162.531 253.802 162.705 254.04C162.883 254.275 163.021 254.469 163.12 254.62H163.234V250.325H164.574V261.961H163.279V260.62H163.12C163.021 260.779 162.881 260.98 162.699 261.222C162.518 261.461 162.258 261.675 161.921 261.864C161.584 262.05 161.135 262.143 160.574 262.143ZM160.756 260.938C161.294 260.938 161.749 260.798 162.12 260.518C162.491 260.234 162.773 259.842 162.967 259.342C163.16 258.838 163.256 258.256 163.256 257.597C163.256 256.946 163.162 256.376 162.972 255.887C162.783 255.395 162.503 255.012 162.131 254.739C161.76 254.463 161.302 254.325 160.756 254.325C160.188 254.325 159.715 254.47 159.336 254.762C158.961 255.05 158.679 255.442 158.489 255.938C158.304 256.431 158.211 256.984 158.211 257.597C158.211 258.219 158.306 258.783 158.495 259.29C158.688 259.794 158.972 260.196 159.347 260.495C159.726 260.79 160.196 260.938 160.756 260.938ZM169.785 262.165C169.232 262.165 168.73 262.061 168.279 261.853C167.828 261.641 167.47 261.336 167.205 260.938C166.94 260.537 166.807 260.052 166.807 259.484C166.807 258.984 166.906 258.578 167.103 258.268C167.3 257.953 167.563 257.707 167.893 257.529C168.222 257.351 168.586 257.219 168.984 257.131C169.385 257.04 169.789 256.969 170.194 256.915C170.724 256.847 171.154 256.796 171.484 256.762C171.817 256.724 172.059 256.662 172.211 256.575C172.366 256.487 172.444 256.336 172.444 256.12V256.075C172.444 255.514 172.29 255.078 171.984 254.768C171.681 254.457 171.22 254.302 170.603 254.302C169.963 254.302 169.461 254.442 169.097 254.722C168.734 255.003 168.478 255.302 168.33 255.62L167.057 255.165C167.285 254.635 167.588 254.222 167.967 253.927C168.349 253.628 168.766 253.419 169.217 253.302C169.671 253.181 170.118 253.12 170.557 253.12C170.838 253.12 171.16 253.154 171.523 253.222C171.891 253.287 172.245 253.421 172.586 253.626C172.931 253.83 173.217 254.139 173.444 254.552C173.671 254.965 173.785 255.518 173.785 256.211V261.961H172.444V260.779H172.376C172.285 260.969 172.133 261.171 171.921 261.387C171.709 261.603 171.427 261.787 171.074 261.938C170.722 262.09 170.292 262.165 169.785 262.165ZM169.989 260.961C170.52 260.961 170.967 260.857 171.33 260.648C171.698 260.44 171.974 260.171 172.16 259.842C172.349 259.512 172.444 259.165 172.444 258.802V257.575C172.387 257.643 172.262 257.705 172.069 257.762C171.879 257.815 171.66 257.862 171.41 257.904C171.164 257.942 170.923 257.976 170.688 258.006C170.457 258.033 170.27 258.056 170.126 258.075C169.777 258.12 169.451 258.194 169.148 258.296C168.849 258.395 168.607 258.544 168.421 258.745C168.239 258.942 168.148 259.211 168.148 259.552C168.148 260.018 168.321 260.37 168.665 260.609C169.014 260.844 169.455 260.961 169.989 260.961Z" fill="white"/>
<circle cx="5.26803" cy="297.961" r="4.76803" fill="#F1823D"/>
<path d="M27.4452 303.961L27.4452 292.325H31.5134C32.324 292.325 32.9926 292.465 33.5191 292.745C34.0456 293.022 34.4376 293.395 34.6952 293.864C34.9528 294.33 35.0816 294.847 35.0816 295.415C35.0816 295.915 34.9926 296.328 34.8145 296.654C34.6403 296.98 34.4092 297.237 34.1214 297.427C33.8373 297.616 33.5286 297.756 33.1952 297.847V297.961C33.5513 297.984 33.9092 298.109 34.2691 298.336C34.6289 298.563 34.9301 298.889 35.1725 299.313C35.4149 299.737 35.5361 300.256 35.5361 300.87C35.5361 301.453 35.4036 301.978 35.1384 302.444C34.8733 302.91 34.4547 303.279 33.8827 303.552C33.3108 303.825 32.5664 303.961 31.6498 303.961H27.4452ZM28.8543 302.711H31.6498C32.5702 302.711 33.2236 302.533 33.61 302.177C34.0001 301.817 34.1952 301.381 34.1952 300.87C34.1952 300.476 34.0948 300.112 33.8941 299.779C33.6933 299.442 33.4073 299.173 33.0361 298.972C32.6649 298.768 32.2255 298.665 31.718 298.665H28.8543V302.711ZM28.8543 297.438H31.468C31.8922 297.438 32.2748 297.355 32.6157 297.188C32.9604 297.022 33.2331 296.787 33.4339 296.484C33.6384 296.181 33.7407 295.825 33.7407 295.415C33.7407 294.904 33.5626 294.47 33.2066 294.114C32.8505 293.754 32.2861 293.575 31.5134 293.575H28.8543L28.8543 297.438ZM41.2151 304.143C40.4272 304.143 39.7359 303.955 39.1412 303.58C38.5503 303.205 38.0882 302.681 37.7549 302.006C37.4253 301.332 37.2606 300.544 37.2606 299.643C37.2606 298.734 37.4253 297.94 37.7549 297.262C38.0882 296.584 38.5503 296.058 39.1412 295.683C39.7359 295.308 40.4272 295.12 41.2151 295.12C42.003 295.12 42.6924 295.308 43.2833 295.683C43.878 296.058 44.3401 296.584 44.6697 297.262C45.003 297.94 45.1697 298.734 45.1697 299.643C45.1697 300.544 45.003 301.332 44.6697 302.006C44.3401 302.681 43.878 303.205 43.2833 303.58C42.6924 303.955 42.003 304.143 41.2151 304.143ZM41.2151 302.938C41.8136 302.938 42.306 302.785 42.6924 302.478C43.0787 302.171 43.3647 301.768 43.5503 301.268C43.7359 300.768 43.8287 300.226 43.8287 299.643C43.8287 299.059 43.7359 298.516 43.5503 298.012C43.3647 297.508 43.0787 297.101 42.6924 296.79C42.306 296.48 41.8136 296.325 41.2151 296.325C40.6166 296.325 40.1242 296.48 39.7378 296.79C39.3515 297.101 39.0655 297.508 38.8799 298.012C38.6943 298.516 38.6015 299.059 38.6015 299.643C38.6015 300.226 38.6943 300.768 38.8799 301.268C39.0655 301.768 39.3515 302.171 39.7378 302.478C40.1242 302.785 40.6166 302.938 41.2151 302.938ZM48.5574 292.325V303.961H47.2165V292.325H48.5574ZM57.1952 297.188L55.9907 297.529C55.9149 297.328 55.8032 297.133 55.6555 296.944C55.5115 296.751 55.3145 296.592 55.0645 296.467C54.8145 296.342 54.4945 296.279 54.1043 296.279C53.5702 296.279 53.1251 296.402 52.7691 296.648C52.4168 296.891 52.2407 297.2 52.2407 297.575C52.2407 297.908 52.3619 298.171 52.6043 298.364C52.8467 298.558 53.2255 298.719 53.7407 298.847L55.0361 299.165C55.8164 299.355 56.3979 299.645 56.7805 300.035C57.163 300.421 57.3543 300.919 57.3543 301.529C57.3543 302.029 57.2104 302.476 56.9225 302.87C56.6384 303.264 56.2407 303.575 55.7293 303.802C55.218 304.029 54.6233 304.143 53.9452 304.143C53.0551 304.143 52.3183 303.95 51.735 303.563C51.1517 303.177 50.7823 302.612 50.627 301.87L51.8998 301.552C52.021 302.022 52.2501 302.374 52.5873 302.609C52.9282 302.844 53.3733 302.961 53.9225 302.961C54.5475 302.961 55.0437 302.828 55.4111 302.563C55.7823 302.294 55.968 301.972 55.968 301.597C55.968 301.294 55.8619 301.04 55.6498 300.836C55.4376 300.628 55.1119 300.472 54.6725 300.37L53.218 300.029C52.4187 299.84 51.8316 299.546 51.4566 299.148C51.0854 298.747 50.8998 298.245 50.8998 297.643C50.8998 297.15 51.038 296.715 51.3145 296.336C51.5948 295.957 51.9755 295.66 52.4566 295.444C52.9414 295.228 53.4907 295.12 54.1043 295.12C54.968 295.12 55.646 295.309 56.1384 295.688C56.6346 296.067 56.9869 296.567 57.1952 297.188ZM61.941 304.165C61.3879 304.165 60.886 304.061 60.4353 303.853C59.9845 303.641 59.6266 303.336 59.3614 302.938C59.0963 302.537 58.9637 302.052 58.9637 301.484C58.9637 300.984 59.0622 300.578 59.2591 300.268C59.4561 299.953 59.7194 299.707 60.0489 299.529C60.3785 299.351 60.7421 299.219 61.1398 299.131C61.5413 299.04 61.9448 298.969 62.3501 298.915C62.8804 298.847 63.3103 298.796 63.6398 298.762C63.9732 298.724 64.2156 298.662 64.3671 298.575C64.5224 298.487 64.6001 298.336 64.6001 298.12V298.075C64.6001 297.514 64.4466 297.078 64.1398 296.768C63.8368 296.457 63.3766 296.302 62.7591 296.302C62.119 296.302 61.6171 296.442 61.2535 296.722C60.8898 297.003 60.6341 297.302 60.4864 297.62L59.2137 297.165C59.441 296.635 59.744 296.222 60.1228 295.927C60.5054 295.628 60.922 295.419 61.3728 295.302C61.8273 295.181 62.2743 295.12 62.7137 295.12C62.994 295.12 63.316 295.154 63.6796 295.222C64.047 295.287 64.4012 295.421 64.7421 295.626C65.0868 295.83 65.3728 296.139 65.6001 296.552C65.8273 296.965 65.941 297.518 65.941 298.211V303.961H64.6001V302.779H64.5319C64.441 302.969 64.2894 303.171 64.0773 303.387C63.8652 303.603 63.583 303.787 63.2307 303.938C62.8785 304.09 62.4485 304.165 61.941 304.165ZM62.1455 302.961C62.6758 302.961 63.1228 302.857 63.4864 302.648C63.8538 302.44 64.1304 302.171 64.316 301.842C64.5054 301.512 64.6001 301.165 64.6001 300.802V299.575C64.5432 299.643 64.4182 299.705 64.2251 299.762C64.0357 299.815 63.816 299.862 63.566 299.904C63.3198 299.942 63.0792 299.976 62.8444 300.006C62.6133 300.033 62.4258 300.056 62.2819 300.075C61.9334 300.12 61.6076 300.194 61.3046 300.296C61.0054 300.395 60.7629 300.544 60.5773 300.745C60.3955 300.942 60.3046 301.211 60.3046 301.552C60.3046 302.018 60.4769 302.37 60.8216 302.609C61.1701 302.844 61.6114 302.961 62.1455 302.961ZM76.1839 304.143C75.4566 304.143 74.8145 303.959 74.2577 303.592C73.7009 303.22 73.2653 302.698 72.9509 302.023C72.6365 301.345 72.4793 300.544 72.4793 299.62C72.4793 298.703 72.6365 297.908 72.9509 297.234C73.2653 296.559 73.7028 296.039 74.2634 295.671C74.824 295.304 75.4717 295.12 76.2066 295.12C76.7748 295.12 77.2236 295.215 77.5532 295.404C77.8865 295.59 78.1403 295.802 78.3145 296.04C78.4926 296.275 78.6308 296.469 78.7293 296.62H78.843V292.325H80.1839V303.961H78.8884V302.62H78.7293C78.6308 302.779 78.4907 302.98 78.3089 303.222C78.127 303.461 77.8676 303.675 77.5305 303.864C77.1933 304.05 76.7445 304.143 76.1839 304.143ZM76.3657 302.938C76.9036 302.938 77.3581 302.798 77.7293 302.518C78.1005 302.234 78.3827 301.842 78.5759 301.342C78.7691 300.838 78.8657 300.256 78.8657 299.597C78.8657 298.946 78.771 298.376 78.5816 297.887C78.3922 297.395 78.1119 297.012 77.7407 296.739C77.3695 296.463 76.9111 296.325 76.3657 296.325C75.7975 296.325 75.324 296.47 74.9452 296.762C74.5702 297.05 74.288 297.442 74.0986 297.938C73.913 298.431 73.8202 298.984 73.8202 299.597C73.8202 300.219 73.9149 300.783 74.1043 301.29C74.2975 301.794 74.5816 302.196 74.9566 302.495C75.3354 302.79 75.8051 302.938 76.3657 302.938ZM86.485 304.143C85.6441 304.143 84.9187 303.957 84.3089 303.586C83.7028 303.211 83.235 302.688 82.9055 302.018C82.5797 301.344 82.4168 300.559 82.4168 299.665C82.4168 298.772 82.5797 297.984 82.9055 297.302C83.235 296.616 83.6933 296.082 84.2805 295.7C84.8714 295.313 85.5608 295.12 86.3486 295.12C86.8032 295.12 87.252 295.196 87.6952 295.347C88.1384 295.499 88.5418 295.745 88.9055 296.086C89.2691 296.423 89.5589 296.87 89.7748 297.427C89.9907 297.984 90.0986 298.669 90.0986 299.484V300.052H83.3714V298.893H88.735C88.735 298.4 88.6365 297.961 88.4395 297.575C88.2464 297.188 87.9698 296.883 87.61 296.66C87.2539 296.436 86.8335 296.325 86.3486 296.325C85.8145 296.325 85.3524 296.457 84.9623 296.722C84.5759 296.984 84.2786 297.325 84.0702 297.745C83.8619 298.165 83.7577 298.616 83.7577 299.097V299.87C83.7577 300.529 83.8714 301.088 84.0986 301.546C84.3297 302.001 84.6498 302.347 85.0589 302.586C85.468 302.821 85.9433 302.938 86.485 302.938C86.8373 302.938 87.1555 302.889 87.4395 302.79C87.7274 302.688 87.9755 302.537 88.1839 302.336C88.3922 302.131 88.5532 301.878 88.6668 301.575L89.9623 301.938C89.8259 302.378 89.5967 302.764 89.2748 303.097C88.9528 303.427 88.5551 303.684 88.0816 303.87C87.6081 304.052 87.0759 304.143 86.485 304.143ZM97.2975 292.325L100.752 302.12H100.888L104.343 292.325H105.82L101.547 303.961H100.093L95.8202 292.325H97.2975ZM109.207 304.165C108.654 304.165 108.152 304.061 107.701 303.853C107.25 303.641 106.892 303.336 106.627 302.938C106.362 302.537 106.229 302.052 106.229 301.484C106.229 300.984 106.328 300.578 106.525 300.268C106.722 299.953 106.985 299.707 107.315 299.529C107.644 299.351 108.008 299.219 108.405 299.131C108.807 299.04 109.21 298.969 109.616 298.915C110.146 298.847 110.576 298.796 110.905 298.762C111.239 298.724 111.481 298.662 111.633 298.575C111.788 298.487 111.866 298.336 111.866 298.12V298.075C111.866 297.514 111.712 297.078 111.405 296.768C111.102 296.457 110.642 296.302 110.025 296.302C109.385 296.302 108.883 296.442 108.519 296.722C108.155 297.003 107.9 297.302 107.752 297.62L106.479 297.165C106.707 296.635 107.01 296.222 107.388 295.927C107.771 295.628 108.188 295.419 108.638 295.302C109.093 295.181 109.54 295.12 109.979 295.12C110.26 295.12 110.582 295.154 110.945 295.222C111.313 295.287 111.667 295.421 112.008 295.626C112.352 295.83 112.638 296.139 112.866 296.552C113.093 296.965 113.207 297.518 113.207 298.211V303.961H111.866V302.779H111.797C111.707 302.969 111.555 303.171 111.343 303.387C111.131 303.603 110.849 303.787 110.496 303.938C110.144 304.09 109.714 304.165 109.207 304.165ZM109.411 302.961C109.941 302.961 110.388 302.857 110.752 302.648C111.119 302.44 111.396 302.171 111.582 301.842C111.771 301.512 111.866 301.165 111.866 300.802V299.575C111.809 299.643 111.684 299.705 111.491 299.762C111.301 299.815 111.082 299.862 110.832 299.904C110.585 299.942 110.345 299.976 110.11 300.006C109.879 300.033 109.691 300.056 109.547 300.075C109.199 300.12 108.873 300.194 108.57 300.296C108.271 300.395 108.029 300.544 107.843 300.745C107.661 300.942 107.57 301.211 107.57 301.552C107.57 302.018 107.743 302.37 108.087 302.609C108.436 302.844 108.877 302.961 109.411 302.961ZM116.995 292.325V303.961H115.654V292.325H116.995ZM122.996 304.143C122.208 304.143 121.517 303.955 120.922 303.58C120.332 303.205 119.869 302.681 119.536 302.006C119.207 301.332 119.042 300.544 119.042 299.643C119.042 298.734 119.207 297.94 119.536 297.262C119.869 296.584 120.332 296.058 120.922 295.683C121.517 295.308 122.208 295.12 122.996 295.12C123.784 295.12 124.474 295.308 125.065 295.683C125.659 296.058 126.121 296.584 126.451 297.262C126.784 297.94 126.951 298.734 126.951 299.643C126.951 300.544 126.784 301.332 126.451 302.006C126.121 302.681 125.659 303.205 125.065 303.58C124.474 303.955 123.784 304.143 122.996 304.143ZM122.996 302.938C123.595 302.938 124.087 302.785 124.474 302.478C124.86 302.171 125.146 301.768 125.332 301.268C125.517 300.768 125.61 300.226 125.61 299.643C125.61 299.059 125.517 298.516 125.332 298.012C125.146 297.508 124.86 297.101 124.474 296.79C124.087 296.48 123.595 296.325 122.996 296.325C122.398 296.325 121.905 296.48 121.519 296.79C121.133 297.101 120.847 297.508 120.661 298.012C120.476 298.516 120.383 299.059 120.383 299.643C120.383 300.226 120.476 300.768 120.661 301.268C120.847 301.768 121.133 302.171 121.519 302.478C121.905 302.785 122.398 302.938 122.996 302.938ZM128.998 303.961V295.234H130.293V296.552H130.384C130.543 296.12 130.831 295.77 131.248 295.501C131.664 295.232 132.134 295.097 132.657 295.097C132.755 295.097 132.878 295.099 133.026 295.103C133.174 295.107 133.286 295.112 133.361 295.12V296.484C133.316 296.472 133.212 296.455 133.049 296.433C132.89 296.406 132.721 296.393 132.543 296.393C132.119 296.393 131.74 296.482 131.407 296.66C131.077 296.834 130.816 297.076 130.623 297.387C130.433 297.694 130.339 298.044 130.339 298.438V303.961H128.998ZM138.344 304.143C137.503 304.143 136.778 303.957 136.168 303.586C135.562 303.211 135.094 302.688 134.765 302.018C134.439 301.344 134.276 300.559 134.276 299.665C134.276 298.772 134.439 297.984 134.765 297.302C135.094 296.616 135.553 296.082 136.14 295.7C136.731 295.313 137.42 295.12 138.208 295.12C138.663 295.12 139.111 295.196 139.555 295.347C139.998 295.499 140.401 295.745 140.765 296.086C141.128 296.423 141.418 296.87 141.634 297.427C141.85 297.984 141.958 298.669 141.958 299.484V300.052H135.231V298.893H140.594C140.594 298.4 140.496 297.961 140.299 297.575C140.106 297.188 139.829 296.883 139.469 296.66C139.113 296.436 138.693 296.325 138.208 296.325C137.674 296.325 137.212 296.457 136.822 296.722C136.435 296.984 136.138 297.325 135.93 297.745C135.721 298.165 135.617 298.616 135.617 299.097V299.87C135.617 300.529 135.731 301.088 135.958 301.546C136.189 302.001 136.509 302.347 136.918 302.586C137.327 302.821 137.803 302.938 138.344 302.938C138.697 302.938 139.015 302.889 139.299 302.79C139.587 302.688 139.835 302.537 140.043 302.336C140.252 302.131 140.413 301.878 140.526 301.575L141.822 301.938C141.685 302.378 141.456 302.764 141.134 303.097C140.812 303.427 140.414 303.684 139.941 303.87C139.467 304.052 138.935 304.143 138.344 304.143ZM150.18 297.188L148.975 297.529C148.899 297.328 148.788 297.133 148.64 296.944C148.496 296.751 148.299 296.592 148.049 296.467C147.799 296.342 147.479 296.279 147.089 296.279C146.555 296.279 146.11 296.402 145.753 296.648C145.401 296.891 145.225 297.2 145.225 297.575C145.225 297.908 145.346 298.171 145.589 298.364C145.831 298.558 146.21 298.719 146.725 298.847L148.021 299.165C148.801 299.355 149.382 299.645 149.765 300.035C150.147 300.421 150.339 300.919 150.339 301.529C150.339 302.029 150.195 302.476 149.907 302.87C149.623 303.264 149.225 303.575 148.714 303.802C148.202 304.029 147.608 304.143 146.93 304.143C146.039 304.143 145.303 303.95 144.719 303.563C144.136 303.177 143.767 302.612 143.611 301.87L144.884 301.552C145.005 302.022 145.235 302.374 145.572 302.609C145.913 302.844 146.358 302.961 146.907 302.961C147.532 302.961 148.028 302.828 148.396 302.563C148.767 302.294 148.952 301.972 148.952 301.597C148.952 301.294 148.846 301.04 148.634 300.836C148.422 300.628 148.096 300.472 147.657 300.37L146.202 300.029C145.403 299.84 144.816 299.546 144.441 299.148C144.07 298.747 143.884 298.245 143.884 297.643C143.884 297.15 144.022 296.715 144.299 296.336C144.579 295.957 144.96 295.66 145.441 295.444C145.926 295.228 146.475 295.12 147.089 295.12C147.952 295.12 148.63 295.309 149.123 295.688C149.619 296.067 149.971 296.567 150.18 297.188Z" fill="white"/>
</svg>
