<svg width="146" height="32" viewBox="0 0 146 32" fill="none" xmlns="http://www.w3.org/2000/svg">
<path d="M33.1491 26.206L35.877 6.70888C37.3967 6.55758 39.5154 6.48193 42.233 6.48193C44.6152 6.48193 46.265 6.86018 47.1823 7.61325C48.0995 8.36631 48.4213 9.72457 48.1372 11.6812C47.9318 13.0944 47.5279 14.1501 46.929 14.8447C46.33 15.5428 45.4367 15.9485 44.2558 16.0585L44.2284 16.1995C46.816 16.4059 47.8668 18.1596 47.3774 21.4572C47.0762 23.4172 46.4395 24.7342 45.464 25.4117C44.4886 26.0891 42.8765 26.4295 40.6277 26.4295C37.3488 26.4329 34.857 26.3573 33.1491 26.206ZM36.2159 24.0053L40.2102 24.0328C41.747 24.0328 42.8251 23.8127 43.4446 23.3691C44.0642 22.9255 44.468 22.0555 44.6529 20.7557C44.8411 19.3631 44.6939 18.4243 44.2182 17.9429C43.739 17.4615 42.743 17.2139 41.2233 17.1933H37.1742L36.2159 24.0053ZM37.4823 15.0166H41.3636C42.7122 15.0166 43.6842 14.7897 44.2764 14.3392C44.8685 13.8888 45.2553 13.0394 45.4435 11.7946C45.6112 10.6083 45.4606 9.82773 44.9917 9.44948C44.5228 9.07467 43.5576 8.88554 42.0961 8.88554H38.3277L37.4823 15.0166Z" fill="#47A138"/>
<path d="M60.3769 12.417H63.2177C62.2046 16.901 60.8834 20.6973 59.2508 23.8058C57.7893 26.5945 56.338 28.5718 54.9039 29.7409C53.4698 30.91 51.7584 31.6631 49.7698 32.0001L49.2633 30.0504C50.4646 29.7684 51.512 29.3454 52.4122 28.7781C53.3124 28.2141 54.1749 27.3545 54.9998 26.206H53.7333C53.3021 26.206 52.9359 26.0891 52.6381 25.8518C52.3369 25.618 52.1486 25.2913 52.0767 24.8752L49.4344 12.4136H52.3061L54.3871 23.5754C54.4419 23.8952 54.6301 24.0568 54.9484 24.0568H56.3278C56.4031 23.9261 56.5057 23.7301 56.6358 23.4791C56.7659 23.2247 56.8514 23.0596 56.8891 22.984C58.5388 19.5384 59.7026 16.0173 60.3769 12.417Z" fill="#47A138"/>
<path d="M68.8138 14.5351L67.7152 22.2789C67.6227 22.9391 67.6809 23.3861 67.8966 23.62C68.1122 23.8572 68.5469 23.9741 69.204 23.9741H71.2577L71.3706 26.0923C70.5457 26.3365 69.4779 26.4603 68.1635 26.4603C66.945 26.4603 66.0688 26.1199 65.5349 25.4424C65.0009 24.765 64.8161 23.7953 64.9872 22.5334L66.1133 14.5351H63.6113L63.8646 12.5579L66.4248 12.4169L67.0169 8.37646H69.6901L69.1287 12.4169H73.3489L73.0683 14.5351H68.8138Z" fill="#47A138"/>
<path d="M84.6508 23.919L84.8185 25.7552C83.4871 26.2813 81.6011 26.5461 79.1642 26.5461C76.8196 26.5461 75.1972 25.9306 74.2971 24.6961C73.3969 23.4617 73.1162 21.5463 73.4516 18.9467C73.8076 16.2921 74.5332 14.4765 75.6319 13.5068C76.7272 12.5371 78.5344 12.0522 81.0467 12.0522C83.1859 12.0522 84.6371 12.4305 85.4072 13.1836C86.1773 13.9366 86.458 15.0473 86.2526 16.519C86.0267 17.8567 85.503 18.8229 84.6782 19.4144C83.8533 20.0093 82.5869 20.3703 80.8824 20.501L76.1282 20.9239C76.1077 22.2237 76.3815 23.104 76.9428 23.5648C77.5041 24.0256 78.3872 24.256 79.5852 24.256C80.8618 24.256 82.5492 24.1459 84.6508 23.919ZM76.2959 18.8883L80.8824 18.4653C81.7449 18.4103 82.3747 18.2246 82.7683 17.9151C83.1619 17.6057 83.4152 17.0623 83.5281 16.2887C83.6411 15.4049 83.4939 14.8582 83.0935 14.6484C82.6896 14.4421 81.8715 14.3389 80.6325 14.3389C79.2087 14.3389 78.199 14.6347 77.6102 15.2296C77.0147 15.821 76.5766 17.0417 76.2959 18.8883Z" fill="#47A138"/>
<path d="M92.5539 6.42676L91.794 12.1349C91.6263 13.3797 91.3799 14.4319 91.0616 15.2985C91.9617 14.3941 92.9509 13.6307 94.0291 13.0083C95.1072 12.3859 96.1066 12.0764 97.0239 12.0764C98.1124 12.0764 98.9475 12.2793 99.5259 12.6851C100.108 13.0908 100.519 13.8439 100.765 14.9443C101.008 16.0446 100.97 17.5576 100.652 19.4798C100.447 21.0238 100.156 22.2823 99.7792 23.252C99.4027 24.2217 98.9167 24.9438 98.3177 25.4149C97.7187 25.886 97.1095 26.1955 96.49 26.3468C95.8705 26.4981 95.073 26.5738 94.1009 26.5738C91.8145 26.5738 89.5076 26.2333 87.1802 25.5559L89.8533 6.42676H92.5539ZM91.0068 17.4476L90.0792 24.2286C91.4278 24.2836 92.4306 24.3146 93.0878 24.3146C94.8676 24.3146 96.0416 24.0292 96.6029 23.4515C97.1643 22.8772 97.5955 21.488 97.8967 19.2838C98.1603 17.231 98.1877 15.9105 97.9823 15.326C97.7769 14.7414 97.243 14.4491 96.3805 14.4491C95.049 14.4525 93.2589 15.4498 91.0068 17.4476Z" fill="#47A138"/>
<path d="M114.213 26.2057H112.074L112.187 23.6611C110.537 25.5833 108.569 26.5427 106.279 26.5427C104.609 26.5427 103.486 25.996 102.904 24.9025C102.322 23.809 102.22 21.8868 102.596 19.1393C102.801 17.6126 103.092 16.3643 103.469 15.3946C103.845 14.4249 104.342 13.7028 104.961 13.2317C105.581 12.7606 106.217 12.4443 106.875 12.2861C107.532 12.1279 108.374 12.0454 109.407 12.0454C111.639 12.0454 113.881 12.2896 116.13 12.7813L114.213 26.2057ZM112.159 21.2335L113.145 14.394C111.42 14.3562 110.455 14.339 110.249 14.339C109.274 14.339 108.535 14.3871 108.028 14.48C107.521 14.5728 107.076 14.8135 106.693 15.2021C106.31 15.5872 106.026 16.0824 105.848 16.6841C105.67 17.2859 105.495 18.1731 105.327 19.3388C105.064 21.3916 105.033 22.7121 105.228 23.2932C105.427 23.8778 105.964 24.1701 106.847 24.1701C107.71 24.1701 108.552 23.9294 109.38 23.4479C110.198 22.9734 111.129 22.2341 112.159 21.2335Z" fill="#47A138"/>
<path d="M121.301 12.4168L121.161 15.3843C123.636 13.1629 125.802 12.0488 127.657 12.0488C128.821 12.0488 129.701 12.3824 130.3 13.0529C130.899 13.7234 131.104 14.6794 130.919 15.9207L129.458 26.2057H126.757L128.078 16.5982C128.191 15.7316 128.157 15.1436 127.979 14.8307C127.801 14.5212 127.411 14.363 126.812 14.363C126.042 14.363 125.241 14.6003 124.406 15.068C123.571 15.5391 122.479 16.3127 121.13 17.3856L119.922 26.2023H117.194L119.135 12.4133H121.301V12.4168Z" fill="#47A138"/>
<path d="M142.902 12.4169H145.688C144.901 14.8858 143.381 16.9284 141.133 18.548C141.413 18.9812 141.694 19.528 141.978 20.1882L144.651 26.2058H141.725L139.082 19.8478C138.237 20.3017 137.152 20.8278 135.82 21.4296L135.119 26.2058H132.418L135.174 6.42676H137.902L136.662 15.6939C136.495 16.8252 136.194 17.9531 135.762 19.0844C137.542 18.2351 139.086 17.2447 140.39 16.1031C141.687 14.9649 142.526 13.7373 142.902 12.4169Z" fill="#47A138"/>
<path d="M13.4753 20.0303H0V26.801H13.4753V20.0303Z" fill="#47A138"/>
<path d="M20.1667 6.53711H6.69143V20.075H20.1667V6.53711Z" fill="#47A138"/>
<path d="M6.64694 0H0.0924282V6.49216H6.64694V0Z" fill="#47A138"/>
<path d="M26.5809 0H20.1188V6.49216H26.5809V0Z" fill="#47A138"/>
</svg>
